<svg xmlns="http://www.w3.org/2000/svg" viewBox="0 0 500 500"><ellipse cx="250" cy="390.67" rx="223.87" ry="99.99" fill="#f5f5f5"/><g fill="#e0e0e0"><ellipse cx="96.3" cy="406.69" rx="53.57" ry="30.93"/><ellipse cx="189.03" cy="376.13" rx="56.47" ry="32.61"/><ellipse cx="285.79" cy="376.13" rx="62.61" ry="36.15"/><ellipse cx="397.96" cy="404.41" rx="62.61" ry="36.15"/></g><path d="M65.41 371.9s1.19-13.38-3.23-24.9S50.15 327.4 42 325s-16.47 3.91-8.65 11 22.51 15.77 25.76 37z" fill="#ba68c8"/><path d="M65.41 371.9s1.19-13.38-3.23-24.9S50.15 327.4 42 325s-16.47 3.91-8.65 11 22.51 15.77 25.76 37z" opacity=".15"/><path d="M63.66 368h.1a.45.45 0 00.36-.53c-4.35-23.47-19.21-35.96-26.46-39.28a.45.45 0 00-.6.22.47.47 0 00.22.61c7.11 3.25 21.67 15.51 25.95 38.61a.47.47 0 00.43.37z" fill="#fff"/><path d="M66.12 393.67v-2a22.21 22.21 0 01.77-5.57c.51-1.78 1.72-3.19 2.15-5a7.62 7.62 0 00-1.39-5.68c-1.1-1.56-2.72-2.81-3.32-4.63-.75-2.28.67-4.58 0-6.68s-2.94-3.41-4.85-3.93c-2.55-.69-5.26-.51-7.83-1.11-3.33-.78-6.2-2.81-9.22-4.41s-6.54-2.84-9.82-1.87a7.93 7.93 0 00-5.07 10.63c.73 1.77 2.08 3.21 3.07 4.86a6 6 0 01.77 5.33c-.56 1.34-1.55 2.35-2 3.73-1.18 3.55-.52 6.74 3 8.56 2.62 1.35 5.63 1 8.26 2.15 1.9.86 3.5 2.62 3.35 4.8-.07 1.12-.39 2.22-.5 3.34-.7 7.34 4.15 12 10.41 12.92a19.3 19.3 0 009.63-1.4c3.16-1.54 2.52-4 2.62-7.12.16-2.29 0-4.59-.03-6.92z" fill="#ba68c8"/><path d="M39.05 378a.39.39 0 00.26 0 22.62 22.62 0 0119.25 1.39.43.43 0 00.58-.17.43.43 0 00-.17-.58 23.48 23.48 0 00-20-1.41.43.43 0 00-.2.57.41.41 0 00.28.2z" fill="#fff"/><path d="M66.72 400.68a.41.41 0 01-.41-.38c-.74-17.91-18.71-36.84-30.76-42a.4.4 0 11.31-.73c12.24 5.25 30.5 24.49 31.25 42.7a.42.42 0 01-.39.42z" fill="#fff"/><path d="M432.43 363.77s-3.7-12.91-1.54-25 8.09-21.57 15.67-25.45 16.91.73 10.58 9.18-19.14 19.69-18.32 41.12z" fill="#ba68c8"/><path d="M432.43 363.77s-3.7-12.91-1.54-25 8.09-21.57 15.67-25.45 16.91.73 10.58 9.18-19.14 19.69-18.32 41.12z" opacity=".15"/><path d="M433.41 359.61h-.1a.45.45 0 01-.45-.45c-.18-23.87 12-38.94 18.53-43.58a.44.44 0 01.63.11.45.45 0 01-.1.63c-6.36 4.54-18.33 19.34-18.16 42.83a.44.44 0 01-.35.46z" fill="#fff"/><path d="M439.72 380.37c-.12-.66-.24-1.31-.39-2a22.28 22.28 0 00-1.81-5.32c-.84-1.64-2.3-2.8-3-4.46a7.64 7.64 0 01.28-5.84c.79-1.74 2.15-3.27 2.39-5.17.3-2.39-1.52-4.37-1.32-6.55s2.24-3.91 4-4.78c2.37-1.16 5.07-1.5 7.48-2.58 3.12-1.4 5.55-3.93 8.21-6.08s5.89-4 9.29-3.69a7.91 7.91 0 017 9.47c-.38 1.88-1.43 3.55-2.09 5.36a6 6 0 00.26 5.38c.79 1.2 2 2 2.67 3.28 1.83 3.27 1.79 6.52-1.35 9-2.31 1.82-5.35 2-7.7 3.68-1.7 1.2-2.94 3.24-2.38 5.34.29 1.09.8 2.11 1.12 3.19 2.09 7.07-1.79 12.58-7.76 14.66a19.22 19.22 0 01-9.73.44c-3.39-.91-3.23-3.45-3.92-6.49-.55-2.21-.84-4.55-1.25-6.84z" fill="#ba68c8"/><path d="M463.34 359.9a.46.46 0 01-.26 0 22.63 22.63 0 00-18.65 5 .43.43 0 01-.54-.67 23.5 23.5 0 0119.4-5.18.43.43 0 010 .81z" fill="#fff"/><path d="M440.47 387.37a.38.38 0 00.32-.45c-2.67-17.72 11.39-39.71 22.24-47.08a.4.4 0 00.11-.55.41.41 0 00-.56-.11C451.56 346.66 437.29 369 440 387a.4.4 0 00.46.33z" fill="#fff"/><path d="M386.2 400.22a5.79 5.79 0 00.54-1.59 8.74 8.74 0 00-.73-5.25 13.62 13.62 0 01-1.22-6.29c.1-2.26.36-4.23.7-6.68 1.39-10.12 4.15-26.8 4.25-30.79.17-6.78.17-10.14-1.06-15.47 0 0 4.58-26 6.5-34.78 3.08-14 5.16-24.9 4.07-37.1-1-11 .18-15.66-6-23-.71-1-1.17-1.54-1.17-1.54s-20.6 24.53-21.83 28.67c-.75 13.63-2.19 40-2.6 52.79-.34 10.66.08 12.11 1.27 24.62 1 10.31 2 21.71 3.19 33.83.38 3.84.68 8.44-.5 12.16-2.42 7.68-9.24 12.24-15 17.13-1 .86-2.1 1.89-2.13 3.24a3.22 3.22 0 001.78 2.74 11.46 11.46 0 003.91.92 16.59 16.59 0 004.33.37c2.45-.24 5.17-.39 7.43-1.5 2-1 3.52-3.39 5.1-5s2.73-3.27 4.56-4.45c1.41-1.01 3.71-1.38 4.61-3.03z" fill="#ffa8a7"/><path d="M354 411.13a4.6 4.6 0 00.47 2.87c.73.93 3.38 3.38 10.22 3.1 6.57-.28 10.42-3.53 11.77-5.36s2.58-3.6 3.91-5.08a11.24 11.24 0 014.52-2.55c1.29-.42 1.65-.91 1.53-2.84-.42-1.81-32.42 9.86-32.42 9.86z" fill="#37474f"/><path d="M384.77 387.61v1.2s.1 2.75-1.64 3.4c-2.07.75-1.93-.81-3.49-2.09-3.41-2.79-7.56-2.56-8.55-.19-1.31 3.14-6 9-7.63 10.58a36.85 36.85 0 01-4.32 3.67c-1.65 1.21-5.66 3.41-5.27 6.09s2.83 4.14 6.14 4.71a19 19 0 0012.99-2.64c3-2 5.68-6 6.81-7.15 2.06-2.1 5.37-2.54 6.43-3.6a9 9 0 00.73-6.1c-.42-2.39-1-4.53-1.1-5.73s-.27-2.06-1.1-2.15z" fill="#455a64"/><path d="M364.27 404a8.81 8.81 0 00-4.43-.3 2.29 2.29 0 00-1.18.5c-1.66 1.21-5.31 3.33-4.91 6s2.75 4.31 6.05 4.88c3 .52 8.37.48 12.13-2.13a10.74 10.74 0 00-7.66-8.95z" fill="#fafafa"/><path d="M447.93 390.32a8.06 8.06 0 00-2.25-3.38 38.53 38.53 0 01-3.28-3.11 14.47 14.47 0 01-1.88-3.87c-.34-.83-1.15-3.61-2.19-7.32-2.76-9.81-7.39-25.73-8.92-29.39-2.62-6.22-4.94-10.63-8.24-13.45 0 0-.77-27.55-1.07-36.56-.45-13.3-2-27.67-8.16-37-6.08-9.1-11.24-12-19.89-16-1-.55-1.68-.88-1.68-.88s-2.89 42-1.11 40.19c2.3 10.85 5.35 34.15 7.87 45.3 2.28 10.06 2.89 11.92 9.64 22.53 5.51 8.66 12.07 19 18.09 29.45 2.62 4.56 5.53 10.67 6.13 16a30.18 30.18 0 01-5.24 20.52 4.16 4.16 0 00-1.13 2.48c.05 1.31 1.36 2.15 2.55 2.57a12.88 12.88 0 009.07-.26 13.36 13.36 0 008.08-12.72 16.44 16.44 0 011.69-8.93c.84-1.54 2-3 2.11-4.77a4.5 4.5 0 00-.19-1.4z" fill="#ffa8a7"/><path d="M424.67 418.72a4.19 4.19 0 003.22 3.14 15.13 15.13 0 0012.36-2.47c5.19-3.85 5.53-7.24 5.76-10.12s-.27-7.13.7-9.31 2.49-3.3 2.84-4.94-1-4.12-1-4.12z" fill="#37474f"/><path d="M442.4 383.83s.55 1 .66 1.27a4.17 4.17 0 01-1.12 5.19c-.8.72-2.55-.05-4-.17a8.3 8.3 0 00-7.24 3c.15 4.87.27 7.78-1.05 11.71a44.2 44.2 0 01-3.18 5.9c-1.28 1.68-3.53 4.41-2.35 6.84a5 5 0 002.93 2.32 14 14 0 0011.84-2c4.7-3.13 5.58-6.87 6-10.1s-.29-6.68.88-9.05 2.76-3.22 3.19-6.49a5.05 5.05 0 00-1.81-4c-2.59-2.45-4.04-5.4-4.75-4.42z" fill="#455a64"/><path d="M439.28 410.73A10.1 10.1 0 00427 410a7.1 7.1 0 00-.8.9c-1.27 1.68-3.52 4.27-2.34 6.69a4.47 4.47 0 003 2.48 15.29 15.29 0 0014.81-4.49l.1-.11.08-.09a9 9 0 00-2.57-4.65z" fill="#fafafa"/><path d="M421.55 329.66s.18-41.62-.34-50.75c-.76-13.53-5.61-20.72-5.61-20.72L369.77 266c-1.06 16.61-2.7 49.54-2.7 49.54-.42 11.75-.05 14.57.54 19.84s2.25 18.79 2.25 18.79 6.59 3.62 19.37.5c.76-6.44 1.74-12.37-.37-20.53l4.89-26.39 2.25 13.77c.67 4.17 1 5.6 2.13 10.51s2.14 6.79 5.27 11.36c4.05 5.9 10.23 15.19 10.23 15.19 11.29-.64 18.11-9.31 18.11-9.31-4.2-14.7-7.93-17.83-10.19-19.61z" fill="#ba68c8"/><path d="M421.55 329.66s.18-41.62-.34-50.75c-.76-13.53-5.61-20.72-5.61-20.72L369.77 266c-1.06 16.61-2.7 49.54-2.7 49.54-.42 11.75-.05 14.57.54 19.84s2.25 18.79 2.25 18.79 6.59 3.62 19.37.5c.76-6.44 1.74-12.37-.37-20.53l4.89-26.39 2.25 13.77c.67 4.17 1 5.6 2.13 10.51s2.14 6.79 5.27 11.36c4.05 5.9 10.23 15.19 10.23 15.19 11.29-.64 18.11-9.31 18.11-9.31-4.2-14.7-7.93-17.83-10.19-19.61z" opacity=".3"/><path d="M393.75 307.76l-2.91-17.2a22 22 0 01-10.42-2.73s1.37 3.65 8.26 4.56l3.44 15.19-3.26 26.57z" opacity=".15"/><path d="M416.69 171.93c-4.31-10.14-10.53-15-20.15-16-10-1-14.24.71-18.62 4.39-9.47.54-14 17.29-2.54 22.64a49.67 49.67 0 002.3 6.06 6.32 6.32 0 00-6.59 1.51c-4.38 4.13-.75 9.9-.75 9.9-4.7-.91-11.57 9.2-2.38 20.36s37 5.91 45.49-6.24 7.08-33.55 3.24-42.62z" fill="#37474f"/><path d="M375.91 254.65c12.12-36 6.8-39.13 8.25-46.72-10.08-.35-14.57 3.61-17.27 14.5-1.32 5.32-3.56 21.53-6.14 29.95-2.32 7.6-6.16 15.79-11.44 21.91a9.76 9.76 0 01-4.63 2.45c-3 .82-4.18 2.66-6.85 3.81-2.5 1.08-3 1.41-2.93 2 .06.73.8 1.56 2.81 1.73a8.9 8.9 0 004.71-.92 51.21 51.21 0 01-6.66 5.48c-4.92 3.32-5 8 2.56 8.57 5.36.42 9.23 0 16.75-8.13a105.25 105.25 0 008.43-11.07c8.42-12.28 10.07-16.63 12.41-23.56z" fill="#ffa8a7"/><path d="M382.6 207.83c-4.39-.17-9.75.42-12.87 5.78s-5.06 19.5-7.52 30.94a26.38 26.38 0 0017.86 5l6.18-30.26z" fill="#455a64"/><path d="M416.48 210.7c4.35.8 5.21 5.32 5.07 9.88a75.4 75.4 0 01-1.36 11.63c-1.26 6.49-4.89 24.46-4.89 24.46a36.15 36.15 0 015.55 16.23c-7 7.87-36.4 12-51.7.48.67-20.67.71-41.49 2-48.24 2.57-13.12 6.33-16.16 11-17.25a11.48 11.48 0 012.73.05l18.46.73z" fill="#ba68c8"/><path d="M416.48 210.7c4.35.8 5.21 5.32 5.07 9.88a75.4 75.4 0 01-1.36 11.63c-1.26 6.49-4.89 24.46-4.89 24.46a36.15 36.15 0 015.55 16.23c-7 7.87-36.4 12-51.7.48.67-20.67.71-41.49 2-48.24 2.57-13.12 6.33-16.16 11-17.25a11.48 11.48 0 012.73.05l18.46.73z" fill="#fff" opacity=".4"/><path d="M467.4 241.32a8 8 0 015.69-1.82 20.14 20.14 0 003.18 0 4.08 4.08 0 003.35-2.14c.14-.32.23-.66.38-1 .24-.5.63-.92.9-1.41a3.26 3.26 0 00.29-2.33 2 2 0 01-.13-.93 1.91 1.91 0 01.41-.68 3.35 3.35 0 00.3-3.37 5.54 5.54 0 01-.39-.86c-.15-.64.2-1.29.22-2 .13-2.95-4.71-2.52-6.44-2.12-.49.11-2.92.61-4 .87.18-1.31.82-2.67.51-4.94-.41-3.12-1.94-4.38-2.77-3-.53.92-.21 1.31-2 4.88-.55 1.1-2.37 3.58-2.88 5.45-.45 1.66-1.16 3.19-4.28 6.29-3.35 3.33-15.94 13.24-15.94 13.24s-11-18.76-14.49-25a21.05 21.05 0 00-14.43-10.19l2.39 24.89s12.36 18.28 18.12 24.74c3.89 4.37 7.34 4.32 11.59 1.84 4.42-2.39 13.76-13.73 20.42-20.41z" fill="#ffa8a7"/><path d="M443.79 245.59c-3.45 2.64-6.25 8.92-6.25 8.92s-.3-4.95 5.19-10.74z" fill="#f28f8f"/><path d="M414.67 210.42s5.77 0 9.94 3.68c4.85 4.24 16.26 25.79 16.26 25.79a17.75 17.75 0 01-5.79 6.39 24 24 0 01-8.54 3.87l-10.21-14.38s-6.09-12.16-1.66-25.35z" fill="#455a64"/><path d="M470.1 224.06c-1.34.4-2.21 1.34-2.58 3.73-.23 1.42-1.29 3.86-3 4.63a3.69 3.69 0 002.14-.5c.85-.62 1.06-.67 1.38-.17a2.71 2.71 0 00.94.8 1.87 1.87 0 00-.55 2.16c.51 1.36 3.79 2 6.72 1.07 0 0-4.6.58-5.37-1s1.87-2.92 3.67-3.08c0 0-4.39.25-4.79-1.26s1.53-2.26 4.13-2.44c0 0-3.6 0-4-1.3-.44-1.6.77-2.24 1.31-2.64z" fill="#f28f8f"/><path d="M404.47 185.4c1.76 1.59 2.79.21 3.83-1s4.37-2.18 5.67.94c1.65 4-1.64 7.58-3.59 8.12-3.24.9-4.2-.74-4.2-.74l-1.44 16.24c-5.32 8-25.27 9.81-16.28-.17l.5-6.38a19.47 19.47 0 01-6.22-.33c-2.45-.73-5.17-2.36-6.5-6.78-1.05-3.48-2.74-11.18-.79-22.4a15.74 15.74 0 013.6-7.3 29.66 29.66 0 0016.64 14.6c5.61 1.8 6.57 3.21 8.78 5.2z" fill="#ffa8a7"/><path d="M390.88 182.62a1.55 1.55 0 101.6-1.61 1.61 1.61 0 00-1.6 1.61z" fill="#263238"/><path d="M391.45 192.63l-5 1.73a2.57 2.57 0 003.28 1.8 2.86 2.86 0 001.72-3.53z" fill="#b16668"/><path d="M391.47 194.27a2.14 2.14 0 00-1.12-.27 2.19 2.19 0 00-2.06 2.2 2.43 2.43 0 001.46 0 2.74 2.74 0 001.72-1.93z" fill="#f28f8f"/><path d="M376.33 178.77l4-1.34a2 2 0 00-2.57-1.43 2.29 2.29 0 00-1.43 2.77zm1.4 3.56a1.55 1.55 0 101.6-1.61 1.61 1.61 0 00-1.6 1.61z" fill="#263238"/><path fill="#f28f8f" d="M385.59 180.56l.26 9.46-4.9-1.27 4.64-8.19zm3.41 21.83s6.79-1.14 10.7-3.54c1.78-1.09 2.47-3.73 2.95-4.83 0 0 .09 4.41-1.7 6.44-3.07 3.49-12.14 4.64-12.14 4.64z"/><path d="M409.52 183.44a5.29 5.29 0 00-2.73 3.49 23.79 23.79 0 00-.5 3.71l-.05 2.26s-3.35 4.6-7.07 6.66-13 4.44-17.91 2.3-7-9.66-6.65-14.66c0 0 6.93-2.29 9.52-1.83s8.55 2.68 10.93 3.08c5.16.87 6.69.71 10.14-2.46 2.62-2.42 4.32-2.55 4.32-2.55z" fill="#ba68c8"/><path d="M409.52 183.44a6.93 6.93 0 00-2.73 3.49 23.79 23.79 0 00-.5 3.71l-.05 2.26s-3.35 4.6-7.07 6.66-13 4.44-17.91 2.3-7-9.66-6.65-14.66c0 0 6.93-2.29 9.52-1.83s8.55 2.68 10.93 3.08c5.16.87 6.92.94 10.14-2.46 2.91-3.08 4.32-2.55 4.32-2.55z" fill="#fff" opacity=".7"/><path d="M374.56 188.36c0-.4 0-.79.05-1.16 0 0 6.93-2.29 9.52-1.83s8.55 2.68 10.93 3.08c5.16.87 6.7.19 10.21-2.9 3-2.61 4.25-2.11 4.25-2.11a9.43 9.43 0 00-2.51 3.9c-.14.43-.3 1.12-.43 1.76a16.38 16.38 0 00-.32 2.88v.92a13.18 13.18 0 01-3.3 3.74 8.93 8.93 0 001.89-5.12 12 12 0 011.4-5.52 8.09 8.09 0 01-5 3.73c-4.58 1.22-8.13-.53-14.35-2.41-4.78-1.45-7.01-.54-12.34 1.04z" fill="#fff"/><path d="M272 109.75L263.22 137s-16.29 11.24-33.4 23.73c-5.79 4.22-6.29 4.08-17.42 3.34l2.93-13.18s21-18.75 23.68-21c16.37-13.95 20.99-19.78 32.99-20.14z" fill="#f28f8f"/><path d="M274.93 109.47c-8.65.43-11.15-.51-19.63 6.17-7.86 6.19-25.48 21.34-25.48 21.34s5.64 13.84 12.4 16L268 135.67z" fill="#455a64"/><path d="M166 337.78c.51 4.39 1 8.36 1.51 11.27s.62 6 .73 8.74c0 .74.12 1.42.12 2.15v1.8s12.37 9.81 12.37-3.55v-1.89l.55-8c.2-2.52.46-5.6.75-9zm23.13-21.44c-.12 1.26-.25 2.53-.37 3.82-.54 5.9-.89 11.82-1.59 17.71-.13 1.13-.26 2.31-.39 3.62 0 0 11.79 2.05 12.1.52.4-1.88.74-3.92.74-3.92 1.56-5.06 3.64-11.42 5.94-18.24z" fill="#ffa8a7"/><path d="M166 342.58c-1.58-12.23-3.51-30.57-4.1-37.47-1.61-18.65 3.44-30.83 3.44-30.83S163.53 256 162 239.84c-3.22-33.93-2.21-47.17 8.61-62.05l48.83.8c4.33 18.49 7.45 81.45 4.66 89.68-1.74 5.1-11.83 32.88-19.07 54.58 0 0-9.53 4.16-16.75-2.88 1.37-14.8 2.66-27.54 3.45-33.55 1.49-11.26 8.26-20.28 8.26-20.28l-6.6-40.76s-2.3 32.69-3.84 46.17c-1.13 9.87-2.27 19.94-4.38 39-1 9.17-2.32 22-3.15 31.65-.02-.03-8.31 4.4-16.02.38z" fill="#455a64"/><path d="M193.39 225.38l1.23-15.19s10.83.15 17.3-6.22c0 0-3.57 7.79-14.06 9.42L196.3 227l3.7 39.14z" fill="#37474f"/><path d="M166.32 367.81c-.58 2.66.27 9.91.27 9.91s1.21 2.48 5.34 4l1.58-10.15z" fill="#263238"/><path d="M171.93 381.76l8.94-3.18 1.97-8.05-10 5.37-.91 5.86z"/><path d="M180.72 358.19v-1.89c1.24.56 4.18 10.36 8 17 3.48 6.09 10.16 9.37 12.36 12 3 3.52-2.49 8.3-11.47 6.61-4.46-.84-11.24-3.51-13.14-6.46s-2.64-8.42-4.18-10.58-5.15-4.61-6-7.09a13.74 13.74 0 01-.15-6.92c.64-2.29 1.18-5.06 2-4.83l.09 1.73c.63 1.2 2.82 2.57 7.34 2.7 2.15.09 4.22-.29 5.15-2.27z" fill="#37474f"/><path d="M183.15 347.86c-.87 2.58-.79 9.88-.79 9.88s.94 2.59 4.87 4.59l2.66-9.92z" fill="#263238"/><path d="M187.23 362.33l9.23-2.21 2.82-7.79-10.51 4.28-1.54 5.72z"/><path d="M198.94 340.25l.68-2.16c1.17.69 2.13 10.61 5.2 17.65 2.81 6.43 9.1 10.4 11 13.26 2.56 3.81-3.37 8-12.12 5.34-4.34-1.31-10.8-4.69-12.36-7.82s-1.74-8.66-3-11-4.62-5.13-5.16-7.68c-.3-1.41.62-4.29 1.58-6.71.89-2.21 1.83-4.89 2.59-4.58l-.19 1.75c.5 1.26 1.52 2.64 6 3.25 2.1.31 4.64.57 5.78-1.3z" fill="#37474f"/><path d="M184 150.74c-5 1.56-10.63 1.84-15.37-.41s-8.27-7.42-7.54-12.62a10 10 0 01-7.74-7.41c-.83-3.64.48-7.48 2.54-10.59s4.81-5.68 7.28-8.47 5.36-6.53 5.45-10.55c.12-5-.28-10-.12-15 .19-5.89.31-14.09 7.17-20.51a10.22 10.22 0 016.13-2.75c2.82-5.36 8.51-7.72 13.27-8.56 2.07-.36 5.63-.76 12 .2a20.26 20.26 0 0110.71 5.29 15.82 15.82 0 014.57 10.49 13 13 0 01-3 8.76 7.29 7.29 0 012 3.52c.35 2.94-.38 6.4-5.18 8.3H213s1.74 9 .87 16.93C209 151.1 187.51 149.62 184 150.74z" fill="#263238"/><path d="M208.06 112.55c5.93.51 10.18 1.73 18.73 13.3 3.52 4.77 15.43 22.28 19.55 28.26 4 .62 12.56 3 12.56 3 3.43 3.35 1.22 11.23.62 14.17l-16.59-1.54a8.67 8.67 0 01-5.71-2.91c-12.39-14.09-20.67-24.21-20.67-24.21z" fill="#ffa8a7"/><path d="M218 166.76c.7-3.27 1.52-9.43 2-13.92 8.22-7.69 5.92-16.08 2.93-22.25-6-12.35-12.37-18-15.06-18h-16.89c-8.08 1-13.6 1.87-15.56 2.3-5 1.09-4.83 4.69-5.12 10-.31 5.79-.8 6.72.54 16.32l6.81 14.7.6 9.06s-13 15.94-15.95 28.33c0 0 7.4-3.18 12.11-8.68 0 0 5 12.52 25.91 11 15.89-1.13 21.08-10.46 21.08-10.46z" fill="#ba68c8"/><path d="M218 166.76c.7-3.27 1.52-9.43 2-13.92 8.22-7.69 5.92-16.08 2.93-22.25-6-12.35-12.37-18-15.06-18h-16.89c-8.08 1-13.6 1.87-15.56 2.3-5 1.09-4.83 4.69-5.12 10-.31 5.79-.8 6.72.54 16.32l6.81 14.7.6 9.06s-13 15.94-15.95 28.33c0 0 7.4-3.18 12.11-8.68 0 0 5 12.52 25.91 11 15.89-1.13 21.08-10.46 21.08-10.46z" fill="#fff" opacity=".4"/><path d="M172.21 173.18c0 1.81 2.35 5.19 4.22 5.31s3.13-.3 4.13-2.65 0-8.31 0-8.31l-8.17 5.38z" opacity=".1"/><path d="M177.86 158.8c.21 3.23 2 6.21 3 8s-.08 11.43-4.41 10c-3.43-1.12-5.18-4.67-4.7-9.56.23-2.32 1-7.16 2-9.11a9.71 9.71 0 013.35-3.45l.52 1.12z" fill="#f28f8f"/><path d="M184.73 145.38a13.2 13.2 0 0011.53 8.52 13.92 13.92 0 0012.74-5.81s-1.61 9.58-13 8.12-11.27-10.83-11.27-10.83z" opacity=".1"/><path d="M163.31 159.68c4.76-7.5 11.05-21.58 11.05-21.58 3.39-7.33 4-18.64 2-23.47a28.79 28.79 0 00-5.51 1.14 16.15 16.15 0 00-10.14 8c-2.56 4.31-10.85 25.89-14 32.6l-15.49-14.12c-3.67-3.64-4.2-8.46-6.37-11.61s-4.82-4.18-7.34-6.91-3.4-4.66-4.61-2.75 1.46 5.84 1.9 6.77 3.38 3.35-.85 2.66-11.79-6.62-13.66-7.76-2.22 1.3-1.49 3-.12 6.12 1.11 9c1.3 3 2.06 4.36 5.74 6.78 3.42 2.27 11.07 4.32 14.56 7.5s11.68 13.6 16.67 19.87c6.34 8 12.32 12 17.09 5.82 3.69-4.76 7.57-12.16 9.34-14.94z" fill="#ffa8a7"/><path d="M146.73 156.37c3 2.89 5.49 6.59 5.65 9.41 0 0 3.07-3.7-4.39-12.21z" fill="#f28f8f"/><path d="M210.15 66.45c2.8 1.57 6.39 8.44 6.4 23 0 12.37-3.92 15.52-5.91 16.45s-5.88.48-9.67-.06l.18 7.42s10.69 11.14 2 12.46c-4.31.65-9.84-2-13.58-4.77a15.06 15.06 0 01-5-7.68l-.31-16.13s-2.17 2.21-6-1c-3.17-2.64-4.33-7.2-2-9.72A5.43 5.43 0 01185 88s2.21.13 4.33-4a33.27 33.27 0 0010.41-2.87c9.91-4.38 10.83-11.52 10.41-14.68z" fill="#ffa8a7"/><path d="M200.64 85.35a1.71 1.71 0 11-1.83-1.65 1.74 1.74 0 011.83 1.65z" fill="#263238"/><path d="M202.65 96.85l4 1.19a2.06 2.06 0 01-2.57 1.49 2.19 2.19 0 01-1.43-2.68z" fill="#f28f8f"/><path d="M214.42 80.8l-3.19-2.1a1.84 1.84 0 012.6-.6 2 2 0 01.59 2.7zm-15.69-1.18l-3.54 1.45a1.83 1.83 0 011-2.48 2 2 0 012.54 1.03zm15.1 4.87a1.71 1.71 0 11-1.83-1.65 1.74 1.74 0 011.83 1.65z" fill="#263238"/><path fill="#f28f8f" d="M206.19 84.61l.48 9.35 4.88-1.65-5.36-7.7zM201 105.87c-4-.42-12.22-2.58-13.57-5.78a8.37 8.37 0 003 4.06c2.5 2 10.67 4.2 10.67 4.2z"/><path d="M185 88v1.81c1.59 2.93 4.49 2.61 4.43.16l-.14-6z" fill="#263238"/><path d="M182.34 85.48a13.76 13.76 0 012.82 5 23.47 23.47 0 01.5 3.69l.05 2.24s.91 4.94 4.6 7 15.62 5.38 20.54 3.26 6.23-11.63 5.88-16.6c0 0-6.83-2.28-9.41-1.82s-8.5 2.65-10.86 3c-5.13.87-7 .31-10.19-3.07-2.89-3-3.93-2.7-3.93-2.7z" fill="#ba68c8"/><path d="M182.34 85.48a13.76 13.76 0 012.82 5 23.47 23.47 0 01.5 3.69l.05 2.24s.91 4.94 4.6 7 15.62 5.38 20.54 3.26 6.23-11.63 5.88-16.6c0 0-6.83-2.28-9.41-1.82s-8.5 2.65-10.86 3c-5.13.87-7 .31-10.19-3.07-2.89-3-3.93-2.7-3.93-2.7z" fill="#fff" opacity=".7"/><path d="M216.78 91.23c0-.4 0-.78-.05-1.15 0 0-6.83-2.28-9.41-1.82s-8.5 2.65-10.86 3c-5.13.87-7 .31-10.19-3.07-2.89-3.06-3.93-2.76-3.93-2.76a13.76 13.76 0 012.82 5 23.47 23.47 0 01.5 3.69l.05 2.24a8.94 8.94 0 002.41 5.13c-.79-1.45-1.36-3.51-1.36-7.21a10.8 10.8 0 00-1.4-5.48 8.05 8.05 0 005 3.7c4.55 1.22 8.08-.52 14.26-2.39 4.7-1.36 6.85-.45 12.16 1.12z" fill="#fff"/><path fill="#f28f8f" d="M308.874 353.153l12.466-.32.547 21.343-12.466.32zm-34.524.807l-12.45.75-1.2-22.57 13.07-.77.58 22.59z"/><path d="M314.14 193.59c1.62 27.51 3.13 83.85 3.13 83.85.38 3.42 3.83 9.43 4.4 21.76.83 17.89.48 64.29.48 64.29a16.4 16.4 0 01-13.87.63s-12.65-63.55-15.34-81.2c-2.34-15.41-6.73-57.33-6.73-57.33l-5.46 50.65a174.76 174.76 0 011.07 23.76c-.37 8.21-6.86 47-6.86 47s-5.76 4.14-14.37 1.47c0 0-3-64.06-3.31-71.58-.38-8.56-1.7-96.51-1.7-96.51z" fill="#455a64"/><path d="M290.35 396.94a3.16 3.16 0 00.61 2.22c.41.63 4.87 3.62 14.73 1.71s11.46-8.4 12.17-11.13a12.13 12.13 0 013.81-6.55 20.54 20.54 0 003.07-3.62 11.65 11.65 0 000-3z" fill="#263238"/><path d="M309.27 368.34v-1.78c-1.13.13-1.4 2.14-3 6.87a26.29 26.29 0 01-6.32 9.3c-2.58 2.48-5 4.18-8.25 7.62-1.11 1.17-2.75 4.3-1.29 6.59 2.56 1.91 7.67 2.43 12.13 2.15s9-1.29 12.52-6.07c1.6-2.14 2.55-7 4-9s4.88-4.45 5.63-6.83c.42-1.31-.19-4.14-.88-6.53-.63-2.19-1.32-4.6-2.07-4.37v1.36c-.88 1-3.35 2.08-6.18 2.26-1.84.09-6.27-.18-6.29-1.57z" fill="#37474f"/><path d="M312.74 395.47c.34-3-.73-6-6.35-7.82-4.73-1.5-10.51-1.35-12.31-.08-4 2.38-5.51 6.3-3.73 9.37 0 0 3 3.46 12.7 2.46 7.23-.74 9.69-3.93 9.69-3.93z" fill="#455a64"/><path d="M232.62 371.49a4.66 4.66 0 002.87 4.3c2.23 1.13 7.69 2.42 14.31.77s11.07-4.53 13.08-4.89 4.82-.06 8.62-.39 5.68-1.34 6.47-2.34a11.26 11.26 0 000-5.14c-.71-2.08-45.35 7.69-45.35 7.69z" fill="#263238"/><path d="M261.67 350.87c-.65 0-1.15 1-2.54 2.55-1.68 1.91-5.11 3.09-7.86 4.56-4.61 2.45-11.65 4.4-16.66 7.59-2.37 1.51-2.67 5.87 0 7.57s9.14 2.8 16.78.88c4.17-1 9.52-5 13-4.93s11 .31 13.89-2.87c.72-1.74-.08-4.59-.89-7.8-.87-3.5-2-9-3.15-8.69v1.22c-1.44 2.3-9.16 3.43-12.49 1.84z" fill="#37474f"/><path d="M252.5 373.7a8.24 8.24 0 00-3.93-9.61 11.48 11.48 0 00-7.15-1.91c-6.6 1.51-11 3.85-8.8 9.31 2.46 4.51 14.28 4.51 19.88 2.21z" fill="#455a64"/><path d="M286.21 225.59s-10-2.55-17.62-9.51c0 0 3.51 6.19 13.63 11.77l-1 44z" fill="#37474f"/><path d="M292.71 109c5.58.54 12.82 1.38 17.67 2.73 3.84 1.58 5.75 4.32 5.86 9 .39 15.92-3.81 49.15-3.81 49.15l2.32 27.51c-7.68 7.66-40.93 10.64-59.45-1.62 0 0 .27-53.16 1.27-62.22 2.06-18.64 8.68-22.63 14.44-23.57s21.7-.98 21.7-.98z" fill="#ba68c8"/><path d="M386.92 128.85a2.31 2.31 0 01.32-.86 3.84 3.84 0 00-.34-3.87 4.9 4.9 0 01-.62-.89 8.36 8.36 0 01-.15-2.25c-.46-3.35-5.84-1.88-7.71-1.08-.54.23-3.18 1.29-4.36 1.81-.07-1.52.37-3.18-.44-5.69-1.11-3.44-3.09-4.56-3.73-2.78-.42 1.15 0 1.53-1.25 5.92-.4 1.36-2 3.5-2.43 6.59a20.39 20.39 0 01-3.59 8c-2 2.89-14.34 16.61-17.63 20.3 0 0-11.65-17.53-16.68-26-6.22-10.49-7-13.34-17.93-16.41-2 11.29-2.54 22.81 2.26 31.3 0 0 13.85 18.56 20.58 27.38 5.27 6.91 8.48 8.4 13.12 7.42 4.22-.9 9.1-8.61 10.69-11.11 7.31-11.48 9.23-14.58 15.52-23.12 1.56-2.11 4.91-3.7 6.95-4.31 1.87-.57 3.27-.81 4.06-1.05a3.59 3.59 0 002.89-2.67c.09-.39.12-.8.22-1.19.17-.62.53-1.17.73-1.78a3.73 3.73 0 00-.14-2.69 2.42 2.42 0 01-.34-.97z" fill="#f28f8f"/><path d="M373 122.41c-1.43.72-2.22 2-2.15 4.74 0 1.65-.66 4.63-2.43 5.84a4.15 4.15 0 002.31-1c.84-.87 1.07-1 1.53-.47a3.17 3.17 0 001.23.71 2.14 2.14 0 00-.19 2.55c.86 1.43 4.69 1.47 7.82-.16 0 0-5.09 1.59-6.27-.05s1.5-3.67 3.51-4.22c0 0-4.91 1.17-5.67-.46s1.27-2.86 4.17-3.6c0 0-4.07.74-4.77-.65-.89-1.7.34-2.64.91-3.23zm-28 31.68c-3.18 3.91-5.79 7.55-6.18 12.59 0 0-1.3-5.46 5.1-14.22z" fill="#b16668"/><path d="M310.38 111.69a35.73 35.73 0 00.45 29.67l15.36 20.1c8.69-3.76 11.42-7.51 16-12.11 0 0-8.13-12.77-12.63-20.58-4.9-8.55-8.56-16.22-19.18-17.08z" fill="#455a64"/><path d="M292.92 71.08a16.16 16.16 0 11-16.3-16 16.14 16.14 0 0116.3 16zm11.87 11.38s-2.51 12.32-3.54 14.35a5.59 5.59 0 01-3.2 2.63l.11-8.66zm-3.44-17.59a6.07 6.07 0 015 1.72c2.17 2.18 1 9.09-1.6 15.87l-4.92.61z" fill="#263238"/><path d="M298.39 83.09c1 .58 2.39-1.33 3.59-2.62s5.18-3.06 7.2 1.1-1.67 9.92-4.79 10.93c-5.39 1.74-6.23-1.72-6.23-1.72l-.22 20.09c-6.64 8.67-25.28 8.1-17.6-1v-5.93s-4.89.79-7.28.44c-4-.58-6.51-3.69-7.75-8-2-6.89-2.78-12.46-1.26-26.06 1.67-14.9 19-15.21 28.39-9.41s5.95 22.18 5.95 22.18z" fill="#f28f8f"/><path d="M298.4 84.75c.5 0 2.36-3.15 3.58-4.28 1.7-1.57-.63-15.6-.63-15.6a6.81 6.81 0 00-1.24-7.58c-2.36-2.55-5.64-5.66-16.24-4.32-7.55 1-15.75 3.39-22.43.19a11.31 11.31 0 004.05 12s2.42 1.53 8.75 2.24 16.18-.29 17.53-.48c1.83-.27 2.24 1.51 3.27 6.35.96 4.24 1.69 11.46 3.36 11.48z" fill="#263238"/><path d="M301.35 66l5.95-3.26a3.28 3.28 0 00-4.53-1.46 3.57 3.57 0 00-1.42 4.72z" fill="#263238"/><path d="M280.3 104s8.86-1.86 11.94-3.54a10.18 10.18 0 004.25-4.28 14.05 14.05 0 01-2.39 5c-2.24 2.91-13.77 5.15-13.77 5.15z" fill="#b16668"/><path d="M282.24 81a1.78 1.78 0 101.76-1.86 1.8 1.8 0 00-1.76 1.86zm1.82-6.71l3.82 2.06a2.28 2.28 0 00-.91-3 2.12 2.12 0 00-2.91.94z" fill="#263238"/><path d="M281 93.3l-4 1.56a2.14 2.14 0 002.77 1.32A2.27 2.27 0 00281 93.3z" fill="#b16668"/><path d="M266.34 75.92l3.45-2.7a2.11 2.11 0 00-3-.44 2.31 2.31 0 00-.45 3.14zm1.11 4.72a1.78 1.78 0 101.76-1.87 1.81 1.81 0 00-1.76 1.87z" fill="#263238"/><path fill="#b16668" d="M276.49 78.87L276 89.56l-5.6-1.85 6.09-8.84z"/><path d="M302.46 80a15.66 15.66 0 00-3.21 5.71 27 27 0 00-.56 4.2l-.06 2.55s-2.37 6-6.57 8.3-16.23 5.62-21.82 3.2-7.36-13.09-6.95-18.74c0 0 7.83-2.59 10.76-2.06s9.66 3 12.35 3.47c5.83 1 8 .35 11.59-3.5 3.29-3.46 4.47-3.13 4.47-3.13z" fill="#ba68c8"/><path d="M302.46 80a15.66 15.66 0 00-3.21 5.71 27 27 0 00-.56 4.2l-.06 2.55s-2.37 6-6.57 8.3-16.23 5.62-21.82 3.2-7.36-13.09-6.95-18.74c0 0 7.83-2.59 10.76-2.06s9.66 3 12.35 3.47c5.83 1 8 .35 11.59-3.5 3.29-3.46 4.47-3.13 4.47-3.13z" fill="#fff" opacity=".7"/><path d="M263.22 86.55c0-.45 0-.89.07-1.31 0 0 7.83-2.59 10.76-2.06s9.66 3 12.35 3.47c5.83 1 8 .35 11.59-3.5 3.29-3.48 4.47-3.13 4.47-3.13a15.66 15.66 0 00-3.21 5.71 27 27 0 00-.56 4.2l-.06 2.55a17.25 17.25 0 01-3 5.09c.9-1.65 1.77-3.25 1.77-7.45a12.3 12.3 0 011.6-6.23 9.25 9.25 0 01-5.64 4.21c-5.18 1.38-9.19-.6-16.23-2.73-5.35-1.63-7.87-.61-13.91 1.18z" fill="#fff"/><path d="M118.46 279.77l-48.25 1.12c-1.17 22.31-2.14 55.25-2.14 55.25-.25 3-2.94 7.95-3.22 19.14-.45 17.23.08 32.78-.07 36.72l-.28 7.09v.26h.06c.26 3.32 11 6.78 11 4.63 0 0-1.39-2.38.77-13.19 1.51-7.58 9.31-34.45 12.47-49.51 2.54-12.15 6.4-32.55 6.4-32.55l4.43 26.41s-1 9.35-.16 15.95c1.42 11.81 3.8 28.55 4 35.07-.66 8.56 6.1 7.45 11 6.53 0 0 0-.72.1-2.62l.15-3.84c.81-9 3.92-43.68 4.63-53.15 1.39-18.31-.81-39.19-.89-53.31z" fill="#f28f8f"/><path d="M70.15 279.77s-1 12.72-1.28 20.18-1 34-1.92 37.1c-3.59 12.41-3 29.62-2.56 53.62a11.53 11.53 0 0012.14 1.22s12.7-45.25 14.19-53.24 4-22.92 4-22.92 2.88 16.73 3.09 19.93 1.33 24.1 4.36 42.67c0 0 1.08 1.52 7.37.77s6.32-3 6.32-3 3.91-41.24 4.34-49.23-.7-36.73-1.79-47.15z" fill="#455a64"/><path d="M94.77 315.73l1.28-8s10.63-.86 15.29-6.18c0 0-1.55 7-12.69 8.07l-1.41 7.7.43 16.57c-.82-5.77-1.81-11.89-2.9-18.16zm-31.71 90.6c-.56.19-.25 1.93 0 2.49a6 6 0 003 2.3c1.5.5 4 1.86 4.85 3.67a9.92 9.92 0 005.6 6 16.3 16.3 0 0011.2 1.12c3.16-.93 4.15-2.49 4.34-3.3a19.86 19.86 0 000-3.26z" fill="#37474f"/><path d="M67.49 409.78c-2.07-.89-3.21-1.28-4.38-2.84-.31-3.71.82-4.72.69-6.76-.25-4 .33-3.75.8-3.56v1.57a5.17 5.17 0 001.34 1.91 3.12 3.12 0 002 .33 1.7 1.7 0 00.79-.27 2 2 0 00.52-.71 6.4 6.4 0 011.63-2.11 6.55 6.55 0 015.3-1.14 1.67 1.67 0 01.62.2c.43.3.38.93.49 1.44.47 2.2 2.53 4.63 4.43 6.52A23.84 23.84 0 0085.9 408a20.51 20.51 0 014.44 3.26 6.22 6.22 0 011.38 5.57 4.78 4.78 0 01-3.15 3 12.9 12.9 0 01-4.12.82 13.5 13.5 0 01-5.3-.74 11.12 11.12 0 01-6.41-5.06 10.67 10.67 0 00-5.25-5.07z" fill="#455a64"/><path d="M72.64 402.73a8.16 8.16 0 016-2s1.07.27.94 1.26a8.94 8.94 0 00-6.35 2.08c-.4.32-.75.36-1.07-.07s.15-1 .48-1.27zm1.76 2.73a9.1 9.1 0 016.3-2.12s1.3.35 1.32 1.36c0 0-2.93-.78-6.69 2a.81.81 0 01-1.3-.27 1 1 0 01.37-.97zm2.27 3.9a.9.9 0 01.19-1.18 9.13 9.13 0 016.25-2.31s1.55.41 1.77 1.39a9.94 9.94 0 00-6.88 2.26.91.91 0 01-1.33-.14z" fill="#f5f5f5"/><path d="M78.54 413.06a6.93 6.93 0 00-1.76 5.74 10.64 10.64 0 002.37 1.05 13.5 13.5 0 005.3.74 12.9 12.9 0 004.12-.82c1.36-.51 3.27-1.51 3.72-3.06a7 7 0 00-1.57-5.89 5.28 5.28 0 00-2.11-1.36c-2.84-.89-7.61.8-10.07 3.6z" fill="#f0f0f0"/><path d="M101.92 394.49c-.56.19-.25 1.93 0 2.49a6.07 6.07 0 003 2.3c1.49.5 4 1.86 4.85 3.67a9.93 9.93 0 005.59 6 16.33 16.33 0 0011.26 1.05c3.15-.93 4.15-2.49 4.33-3.3a19 19 0 000-3.26z" fill="#37474f"/><path d="M106.35 397.94c-2.06-.89-3.2-1.28-4.37-2.84-.31-3.71.81-4.72.69-6.76-.25-4 .32-3.75.79-3.56v1.57a5.08 5.08 0 001.35 1.91 3.1 3.1 0 002 .33 1.66 1.66 0 00.78-.27 2.07 2.07 0 00.53-.71 6.4 6.4 0 011.63-2.11 6.49 6.49 0 015.29-1.14 1.62 1.62 0 01.62.2c.44.3.38.93.49 1.44.47 2.2 2.54 4.63 4.44 6.51a23.08 23.08 0 004.21 3.62 20.37 20.37 0 014.45 3.26 6.22 6.22 0 011.38 5.57 4.8 4.8 0 01-3.15 3 13 13 0 01-4.13.82A13.61 13.61 0 01118 408a11.12 11.12 0 01-6.41-5.06 10.73 10.73 0 00-5.24-5z" fill="#455a64"/><path d="M111.51 390.89a8.11 8.11 0 016-2s1.07.27.94 1.26a8.94 8.94 0 00-6.35 2.08c-.39.32-.74.36-1.07-.07s.14-.99.48-1.27zm1.75 2.73a9.06 9.06 0 016.31-2.12s1.3.35 1.32 1.36c0 0-2.94-.78-6.7 2a.8.8 0 01-1.29-.27.93.93 0 01.36-.97zm2.27 3.9a.92.92 0 01.19-1.18A9.15 9.15 0 01122 394s1.56.41 1.77 1.39a9.91 9.91 0 00-6.86 2.26.91.91 0 01-1.33-.14z" fill="#f5f5f5"/><path d="M117.41 401.22a7 7 0 00-1.77 5.74A10.92 10.92 0 00118 408a13.61 13.61 0 005.29.74 13 13 0 004.13-.82c1.35-.51 3.26-1.51 3.71-3.06a7 7 0 00-1.57-5.89 5.11 5.11 0 00-2.11-1.36c-2.81-.88-7.61.81-10.04 3.61z" fill="#f0f0f0"/><path d="M113.76 269.47c-11.51-33.6-6.46-36.56-7.84-43.65 9.57-.32 13.83 3.37 16.39 13.55 1.26 5 3.39 20.11 5.83 28 2.21 7.09 5.85 14.74 10.86 20.46a9.32 9.32 0 004.4 2.29c2.88.76 4 2.49 6.5 3.56 2.37 1 2.82 1.31 2.78 1.84-.05.68-.76 1.45-2.67 1.61a8.56 8.56 0 01-4.47-.85 26.81 26.81 0 005.19 4.33c4.66 3.09 4.08 7.43-3 8-5.09.39-10.64-2.4-16-8a79.46 79.46 0 01-7.63-9.18c-8.01-11.43-8.1-15.49-10.34-21.96z" fill="#f28f8f"/><path d="M107.4 225.73c4.17-.16 9.25.39 12.22 5.4s4.28 15.71 6.61 26.4c0 0-7.91 6.71-17.73 5.72l-4.56-26.78z" fill="#455a64"/><path d="M75 225.17c-.63 3.37-7.07 20.1-7.1 19.92l2.36 19-.9 24c6.92 7.54 34.84 9.95 50-1.09 0 0-1.6-38.92-2.74-46.53-2-13.22-6.39-14.86-15.48-15.76l-16.69-.2z" fill="#ba68c8"/><path d="M75 225.17c-.63 3.37-7.07 20.1-7.1 19.92l2.36 19-.9 24c6.92 7.54 34.84 9.95 50-1.09 0 0-1.6-38.92-2.74-46.53-2-13.22-6.39-14.86-15.48-15.76l-16.69-.2z" opacity=".3"/><path d="M24.79 238.42a59.46 59.46 0 00-5.3-2.89c-1.21-.57-2.82-1-3.29-2.44a7.17 7.17 0 01-.24-1.85 5.22 5.22 0 00-.3-1.84 6.88 6.88 0 01-.56-1.32 4.52 4.52 0 01.23-1.75 2.71 2.71 0 00-.14-1.64 3.51 3.51 0 01.75-3.49 4.27 4.27 0 00.67-.74c.35-.59.21-1.36.39-2 .8-3 6-.59 7.66.35.46.28 2.77 1.55 3.8 2.17a17.24 17.24 0 011.54-4.9c1.4-3 4-3 3.74-1.06a29.16 29.16 0 00.13 5.07c.08 1.3.39 3.2.69 6.16a16.32 16.32 0 001.81 6.75c3 5.38 14 19.94 14 19.94 4.65-7.2 9.11-14.88 15.84-23.32 3.14-4 9.43-4.15 9.43-4.15l-3.18 24.63s-8.67 12.83-16.2 19.4c-4.18 3.64-8.84 5.21-14.21-1.7-7.72-9.93-14.43-27.11-17.26-29.38z" fill="#f28f8f"/><path d="M50.36 252.93c2.18 3.06 3.12 5.71 3.19 8.21 0 0 1.22-4.28-2.51-9.26zm-23.43-31.35c1.62.75 1.94 1.93 1.59 4.34-.21 1.44-.12 4.15 1.31 5.41a3.76 3.76 0 01-1.92-1.14c-.65-.85-.84-1-1.3-.58a2.69 2.69 0 01-1.16.48 1.88 1.88 0 01-.11 2.25c-.9 1.15-4.27.75-6.85-1 0 0 4.3 2 5.52.66s-.93-3.37-2.64-4.08c0 0 4.2 1.58 5 .24s-.82-2.63-3.28-3.6c0 0 3.49 1.1 4.26 0 .97-1.44-.01-2.43-.42-2.98z" fill="#b16668"/><path d="M76.3 225.07c-1 .09-6.18.11-9.44 3.42-3.52 3.56-8.08 10.4-14.52 20.62 0 0 2.82 6.92 11.62 12.64l9.34-11.26s7.7-9.81 3-25.42z" fill="#455a64"/><circle cx="102.87" cy="194.47" r="14.24" transform="rotate(-84.34 102.885 194.476)" fill="#263238"/><path d="M78.58 203.41s2.21 10.43 3.1 12.14a4.76 4.76 0 002.73 2.21l-.15-7.34zm2.78-14.94a5.12 5.12 0 00-4.25 1.5c-1.83 1.87-.81 7.72 1.47 13.44l4.18.48z" fill="#263238"/><path d="M84 203.9c-.84.5-2-1.11-3.07-2.2s-4.41-2.55-6.09 1 1.49 8.4 4.14 9.23c4.58 1.44 5.27-1.5 5.27-1.5l.35 16.52s3 7.33 11.12 8.43 8-5.7 5.37-9v-4.64a19.55 19.55 0 006-.6c2.59-.7 4.55-2.25 6.25-6.18 2.29-5.29 2.59-11.08.91-21.92-2-12.56-17.42-12.93-25.35-7.94S84 203.9 84 203.9z" fill="#f28f8f"/><path d="M93.7 179.26A24.35 24.35 0 0099 178a86.31 86.31 0 0012.27-4.42 2 2 0 011.38-.25 1.81 1.81 0 011 1.45 10.23 10.23 0 01-1.12 7.32 5.16 5.16 0 001.15-.51 2.47 2.47 0 01.91-.47c1.71-.11.85 2.77.59 3.57a8.8 8.8 0 01-2.45 3.6 15.65 15.65 0 01-8.38 3.82c-4.36.63-8.81-.22-13.08-1.34a7.54 7.54 0 01-5.4 7.83 14.52 14.52 0 01.59 5.2 2.27 2.27 0 01-.92 2c-.83.42-1.6-.33-2.14-1.09s-1.34-1.74-2-2.57a2.77 2.77 0 01-.8-1.14 11.24 11.24 0 01-.19-3.38c.07-2 .28-4.06.53-6.07.09-.75.19-1.49.29-2.23 0-.17.21-.7.13-.86a5.63 5.63 0 011.4-6c1.55-1.72 4-2.19 6.16-2.57a34.33 34.33 0 014.71-.62z" fill="#263238"/><path d="M81.37 189.4l-5.07-2.72a2.8 2.8 0 013.84-1.27 3 3 0 011.23 3.99z" fill="#263238"/><path d="M101.09 221.75s-8.08-.83-11.74-3.19a10.11 10.11 0 01-3.63-3.56 10.06 10.06 0 002.06 4.24c3.62 4.28 13.32 4.52 13.32 4.52z" fill="#b16668"/><path d="M98.24 202a1.7 1.7 0 11-1.7-1.76 1.72 1.72 0 011.7 1.76zM96 196.92l-3.61 2a2.16 2.16 0 01.85-2.87 2 2 0 012.76.87z" fill="#263238"/><path d="M98.25 212l4.62 1.73a2.42 2.42 0 01-3.13 1.53 2.59 2.59 0 01-1.49-3.26z" fill="#b16668"/><path d="M112.76 197.86l-3.29-2.53a2 2 0 012.86-.44 2.18 2.18 0 01.43 2.97zm-.87 3.4a1.7 1.7 0 11-1.7-1.77 1.73 1.73 0 011.7 1.77z" fill="#263238"/><path fill="#b16668" d="M103.67 199.11l.3 10.11 4.73-1.61-5.03-8.5z"/><path d="M80.94 201.7a13.76 13.76 0 012.82 5 23.47 23.47 0 01.5 3.69v2.24s2.08 5.26 5.77 7.3 14.47 3.75 19.39 1.62 6.21-10.31 5.86-15.28c0 0-6.83-2.28-9.41-1.82s-8.5 2.65-10.86 3.05c-5.13.87-7 .31-10.19-3.07-2.82-3.03-3.88-2.73-3.88-2.73z" fill="#ba68c8"/><path d="M80.94 201.7a13.76 13.76 0 012.82 5 23.47 23.47 0 01.5 3.69v2.24s2.08 5.26 5.77 7.3 14.47 3.75 19.39 1.62 6.21-10.31 5.86-15.28c0 0-6.83-2.28-9.41-1.82s-8.5 2.65-10.86 3.05c-5.13.87-7 .31-10.19-3.07-2.82-3.03-3.88-2.73-3.88-2.73z" fill="#fff" opacity=".7"/><path d="M115.38 207.45v-1.15s-6.83-2.28-9.41-1.82-8.5 2.65-10.86 3.05c-5.13.87-7 .31-10.19-3.07-2.89-3.06-3.93-2.76-3.93-2.76a13.76 13.76 0 012.82 5 23.47 23.47 0 01.5 3.69v2.24a15.18 15.18 0 002.6 4.47 11.41 11.41 0 01-1.55-6.55A10.8 10.8 0 0084 205.1a8.05 8.05 0 005 3.7c4.55 1.22 8.08-.52 14.26-2.39 4.66-1.41 6.81-.53 12.12 1.04z" fill="#fff"/><circle cx="105.84" cy="75.1" r="18.12" transform="rotate(-74.59 105.85 75.103)" fill="#ba68c8"/><path d="M117.74 61.71a8.47 8.47 0 01-3.38-2.36c.65.29 1.74-.29 3.14-2.08a82.96 82.96 0 002.93-4l.32-.45.88.62c-.1.13-.2.28-.31.44-.73 1.06-1.73 2.55-2.71 4.13-1.2 1.99-1.37 3.19-.87 3.7z" fill="#ba68c8"/><path d="M121.24 54a3.67 3.67 0 01-.46-.27 3 3 0 01-.42-.35l.39-.55.88.62z" opacity=".2"/><path d="M123.05 53.71a.65.65 0 00.11-.29.15.15 0 000-.07.45.45 0 000-.11.11.11 0 000-.05.19.19 0 000-.08 2.56 2.56 0 00-1-1.23 2.53 2.53 0 00-1.51-.54h-.3a.66.66 0 00-.23.21.85.85 0 00-.12.28c-.11.42.32 1.09 1 1.59s1.5.68 1.85.44a.76.76 0 00.2-.15z" fill="#ba68c8"/><path d="M122.6 53.09c-.17.23-.71.14-1.21-.21s-.77-.82-.61-1.06.35-.17.64-.08c-.34 0-.48.27-.26.59a2.12 2.12 0 001 .7c.25 0 .43 0 .46-.17a.37.37 0 01-.02.23z" opacity=".3"/><path d="M111.3 58a9.61 9.61 0 01-4-.78c.71 0 1.3-.1 1.8-2.06.41-1.61.48-1.7.7-2.83 0-.17.07-.32.1-.47l1.05.2q0 .23-.09.48c-.21 1.12-.21 1.23-.43 2.87-.31 1.97.2 2.3.87 2.59z" fill="#ba68c8"/><path d="M110.78 52.69a3.33 3.33 0 01-.54-.07 2.63 2.63 0 01-.52-.14c0-.23.09-.46.13-.66l1.05.2c-.04.21-.08.43-.12.67z" opacity=".2"/><path d="M112.66 51.54a.77.77 0 000-.37.24.24 0 000-.08l-.06-.12a.47.47 0 00-.06-.09 3.12 3.12 0 00-1.71-.84 3.05 3.05 0 00-1.89.15h-.14a.39.39 0 00-.1.08v.06a1 1 0 00-.15.35.87.87 0 000 .36c.08.5.87 1 1.9 1.22s2 0 2.22-.43a.75.75 0 00-.01-.29z" fill="#ba68c8"/><path d="M111.87 51.08c-.06.34-.69.5-1.4.36s-1.24-.52-1.17-.86.29-.35.65-.4c-.38.16-.39.53 0 .78a2.57 2.57 0 001.44.26c.29-.06.47-.18.41-.41a.34.34 0 01.07.27z" opacity=".3"/><path d="M103.56 57.31a9 9 0 01-3.39.78c.56-.22.85-1.06.6-2.6a12.33 12.33 0 00-.21-1.41c0-.13-.06-.25-.08-.36l.88-.21c0 .11 0 .24.08.36a10.44 10.44 0 00.44 1.36c.45 1.49 1.12 2.12 1.68 2.08z" fill="#ba68c8"/><path d="M101.49 54.07a2.83 2.83 0 01-.44.13 2.34 2.34 0 01-.45.07c0-.2-.08-.38-.12-.55l.88-.21c.04.18.08.36.13.56z" opacity=".2"/><path d="M102.31 52.76a.54.54 0 00-.12-.24v-.05l-.07-.06h-.07a2.58 2.58 0 00-2.54.59v.06a.2.2 0 000 .08v.06a.61.61 0 000 .27.7.7 0 00.11.23c.2.3.86.41 1.59.24s1.27-.56 1.32-.92a.53.53 0 00-.22-.26z" fill="#ba68c8"/><path d="M101.66 52.68c.06.24-.31.53-.81.65s-.95 0-1-.22.09-.32.31-.45c-.2.21-.1.45.23.5a1.76 1.76 0 001-.25c.17-.12.26-.25.15-.38a.25.25 0 01.12.15z" opacity=".3"/><path d="M96.86 59.53a8.68 8.68 0 01-3.45 2.27c.52-.49.39-1.71-.75-3.64-.92-1.58-1.86-3.08-2.55-4.14l-.3-.45.9-.59c.09.14.19.29.3.44.7 1.06 1.7 2.51 2.79 4 1.33 1.79 2.4 2.39 3.06 2.11z" fill="#ba68c8"/><path d="M91.08 53.54a2.88 2.88 0 01-.43.33 2.42 2.42 0 01-.47.26c-.13-.2-.25-.39-.37-.56l.9-.59z" opacity=".2"/><path d="M91.69 51.29a.72.72 0 00-.28-.27l-.07-.02-.13-.05h-.18A3.86 3.86 0 0087.77 53a.43.43 0 000 .11.14.14 0 000 .06.71.71 0 000 .14.22.22 0 010 .08 1 1 0 00.14.37.86.86 0 00.28.26c.43.32 1.4.13 2.32-.48s1.48-1.43 1.36-2a.81.81 0 00-.18-.25z" fill="#ba68c8"/><path d="M90.76 51.52c.2.3-.15.89-.79 1.31s-1.31.51-1.51.21 0-.48.2-.78c-.18.39.09.68.57.58A2.68 2.68 0 0090.5 52c.18-.26.23-.48 0-.61a.36.36 0 01.26.13z" opacity=".3"/><path d="M91.17 64.69a14.85 14.85 0 01-1.89 3.44c.26-.62 0-1.36-1-2-.78-.54-1.57-1-2.15-1.34l-.24-.14.49-.89.25.13c.58.32 1.4.73 2.28 1.11 1.09.43 1.88.24 2.26-.31z" fill="#ba68c8"/><path d="M86.82 63.94c-.07.15-.14.3-.23.46a4.68 4.68 0 01-.27.44l-.38-.22.49-.89z" opacity=".2"/><path d="M86.41 62.37a.56.56 0 00-.27-.08h-.26a2.75 2.75 0 00-1.33 2.41.19.19 0 000 .07.36.36 0 000 .09.1.1 0 000 .05.55.55 0 00.21.19.79.79 0 00.26.08c.37 0 .93-.39 1.31-1.08s.46-1.4.21-1.69a.55.55 0 00-.13-.04z" fill="#ba68c8"/><path d="M85.89 62.82c.23.13.2.62-.06 1.09s-.66.76-.89.64-.18-.3-.13-.56c0 .31.28.4.55.18a1.94 1.94 0 00.52-1c0-.23 0-.38-.19-.39a.23.23 0 01.2.04z" opacity=".3"/><path d="M88.23 71.48a8.64 8.64 0 01-.36 4.11c-.06-.71-1.09-1.36-3.3-1.67-1.8-.26-3.55-.44-4.81-.56h-.53l.1-1.07.53.05c1.25.1 3 .21 4.82.27 2.23.02 3.32-.44 3.55-1.13z" fill="#ba68c8"/><path d="M80 72.3a3.29 3.29 0 010 .54 2.81 2.81 0 01-.08.53l-.68-.06.1-1.07z" opacity=".2"/><path d="M78.51 70.2a1 1 0 00-.42.06H78l-.12.08h-.06l-.09.08a4.19 4.19 0 00-.36 4.21.86.86 0 00.07.1v.06l.11.1h.07a1.16 1.16 0 00.41.13 1 1 0 00.42-.06c.56-.15 1.06-1.12 1.16-2.32s-.22-2.24-.75-2.49a1 1 0 00-.35.05z" fill="#ba68c8"/><path d="M78.08 71.16c.39 0 .66.73.59 1.57s-.46 1.47-.85 1.44c-.24 0-.44-.3-.53-.71.22.42.64.39.88-.09a2.93 2.93 0 00.13-1.68c-.11-.33-.26-.52-.52-.43a.44.44 0 01.3-.1z" opacity=".3"/><path d="M88.29 78.87A13.51 13.51 0 0189.71 83c-.33-.67-1.24-1-2.76-.58-1.24.32-2.42.68-3.26 1l-.36.12L83 82.4l.35-.12c.83-.3 2-.74 3.16-1.25 1.41-.63 1.94-1.44 1.78-2.16z" fill="#ba68c8"/><path d="M83.45 82.23a5.29 5.29 0 01.22.53c.06.18.11.37.15.54l-.49.17L83 82.4z" opacity=".2"/><path d="M81.77 81.44a.83.83 0 00-.27.17.7.7 0 00-.06.09v.08a2.59 2.59 0 00.1 1.6 2.69 2.69 0 00.91 1.33h.28a.84.84 0 00.31 0 .76.76 0 00.26-.16c.33-.27.38-1.07.09-1.9s-.82-1.43-1.25-1.44a.77.77 0 00-.37.23z" fill="#ba68c8"/><path d="M81.76 82.21c.28-.09.66.3.86.88s.14 1.12-.13 1.21-.39-.06-.57-.31c.27.21.55.06.56-.33a2.15 2.15 0 00-.41-1.16c-.17-.18-.33-.27-.48-.13a.37.37 0 01.17-.16z" opacity=".3"/><path d="M91.69 86.18a27.44 27.44 0 012.16 2.31c-.32-.3-.85-.59-1.24-.37a4 4 0 00-.81.56l-.08.07-.46-.49.08-.07a3 3 0 00.58-.78 1.1 1.1 0 00-.23-1.23z" fill="#ba68c8"/><path d="M91.44 88.09a2.72 2.72 0 01.24.24 2.46 2.46 0 01.22.25l-.18.17-.46-.49z" opacity=".2"/><path d="M90 88a.53.53 0 00-.13.2v.19a2.36 2.36 0 001.63 1.75h.27a.55.55 0 00.21-.12.63.63 0 00.13-.2c.15-.29-.06-.87-.53-1.37s-1-.75-1.33-.62A.5.5 0 0090 88z" fill="#ba68c8"/><path d="M90.22 88.52c.17-.15.56 0 .89.35s.45.75.28.9-.29.07-.5 0c.26.06.41-.13.3-.41a1.7 1.7 0 00-.66-.69c-.18-.08-.32-.09-.38.06a.29.29 0 01.07-.21z" opacity=".3"/><path d="M97.27 90.94a9.8 9.8 0 013.83 1.54c-.69-.16-1.29-.16-2.13 1.62-.69 1.46-.78 1.54-1.2 2.57-.06.16-.12.3-.18.44l-1-.4c.05-.14.11-.28.17-.44.41-1 .43-1.14.94-2.67.63-1.88.18-2.29-.43-2.66z" fill="#ba68c8"/><path d="M96.85 96.08a3.72 3.72 0 01.51.16 3.19 3.19 0 01.49.24c-.1.22-.18.43-.26.63l-1-.4z" opacity=".2"/><path d="M94.78 96.85a.8.8 0 00-.06.37v.08a.61.61 0 000 .13v.15a3 3 0 001.51 1.15 3.08 3.08 0 001.89.22h.15l.12-.07.06-.06a.71.71 0 00.21-.3.76.76 0 00.06-.36c0-.51-.66-1.17-1.63-1.56s-1.92-.38-2.26 0a.69.69 0 00-.05.25z" fill="#ba68c8"/><path d="M95.46 97.45c.13-.32.78-.36 1.45-.09s1.12.75 1 1.07-.36.29-.72.26c.4-.08.48-.44.14-.76A2.65 2.65 0 0096 97.4c-.3 0-.5.09-.49.33a.39.39 0 01-.05-.28z" opacity=".3"/><path d="M104.81 93a9 9 0 013.47-.13c-.58.11-1 .87-1.07 2.4a10.69 10.69 0 00-.07 1.4v.37h-.9v-.36a8.56 8.56 0 00-.17-1.4c-.17-1.51-.67-2.28-1.26-2.28z" fill="#ba68c8"/><path d="M106.23 96.48a3.1 3.1 0 01.45 0 2.2 2.2 0 01.45 0v.57h-.9c.01-.18.01-.37 0-.57z" opacity=".2"/><path d="M105.18 97.62a.54.54 0 00.06.25l.06.07h.05A2.53 2.53 0 00108 98a.35.35 0 00.05-.08.75.75 0 000-.26.66.66 0 00-.07-.25c-.14-.34-.76-.57-1.51-.54s-1.36.31-1.47.65a.55.55 0 00.18.1z" fill="#ba68c8"/><path d="M105.8 97.81c0-.25.4-.46.91-.48s.94.16 1 .41-.15.29-.39.38c.24-.17.19-.43-.12-.54a1.92 1.92 0 00-1.05 0c-.19.09-.29.2-.22.35a.25.25 0 01-.13-.12z" opacity=".3"/><path d="M111.93 92a8.73 8.73 0 013.7-1.82c-.57.43-.6 1.65.27 3.69.72 1.67 1.46 3.26 2 4.39l.24.48-1 .47-.23-.47c-.56-1.13-1.37-2.68-2.26-4.27-1.05-1.92-2.03-2.64-2.72-2.47z" fill="#ba68c8"/><path d="M116.87 98.63a5.3 5.3 0 01.47-.28c.17-.08.34-.14.5-.2.11.22.2.42.3.61l-1 .47z" opacity=".2"/><path d="M116 100.79a.89.89 0 00.24.3h.07l.12.07h.17a3.27 3.27 0 002-.38 3.23 3.23 0 001.5-1.33.42.42 0 000-.1.14.14 0 000-.06.39.39 0 000-.14.22.22 0 000-.08.85.85 0 00-.09-.38 1 1 0 00-.23-.3c-.39-.37-1.38-.3-2.37.18s-1.65 1.23-1.6 1.77a1 1 0 00.19.45z" fill="#ba68c8"/><path d="M116.94 100.67c-.16-.32.26-.86 1-1.2s1.37-.34 1.53 0 0 .48-.3.74c.22-.36 0-.68-.49-.64a2.65 2.65 0 00-1.38.69c-.2.24-.28.45-.09.61a.38.38 0 01-.27-.2z" opacity=".3"/><path d="M119 87.43a15.1 15.1 0 012.33-3.16c-.35.57-.21 1.34.66 2.11.7.63 1.41 1.2 1.94 1.6l.22.16-.61.82-.22-.16c-.53-.38-1.29-.89-2.1-1.37-.96-.6-1.73-.5-2.22 0z" fill="#ba68c8"/><path d="M123.23 88.7a3.41 3.41 0 01.28-.42c.11-.15.22-.28.32-.4l.36.26-.61.82z" opacity=".2"/><path d="M123.43 90.32a.66.66 0 00.26.11h.31a2.32 2.32 0 001.12-.89 2.26 2.26 0 00.51-1.34v-.07a.11.11 0 010-.05v-.16a.6.6 0 00-.18-.21.8.8 0 00-.25-.11c-.37-.1-1 .26-1.44.9s-.64 1.33-.43 1.65a.84.84 0 00.1.17z" fill="#ba68c8"/><path d="M124 89.93c-.21-.15-.12-.63.21-1.07s.75-.67 1-.52.14.32.06.58c0-.31-.23-.44-.53-.25a1.89 1.89 0 00-.64.89c0 .22 0 .38.14.42a.26.26 0 01-.24-.05z" opacity=".3"/><path d="M122.55 81.79a6.92 6.92 0 011.13-4c0 .72 1.13 1.64 3.81 2.52.64.21 2 .82 3.58 1.27l.65.18-.29 1-.65-.18c-1.54-.43-3.2-.88-3.66-1-2.75-.58-4.22-.42-4.57.21z" fill="#ba68c8"/><path d="M130.78 82.64a2.78 2.78 0 01.11-.53 3.25 3.25 0 01.18-.5l.65.18-.29 1z" opacity=".2"/><path d="M131.84 85a1 1 0 00.43 0h.29l.1-.06a3.55 3.55 0 001.18-1.94 3.61 3.61 0 000-2.19.54.54 0 01-.05-.11.21.21 0 010-.06.62.62 0 00-.09-.12.23.23 0 00-.07-.07.92.92 0 00-.38-.2 1.15 1.15 0 00-.41 0c-.58 0-1.26.9-1.59 2.06s-.2 2.24.27 2.59a1 1 0 00.32.1z" fill="#ba68c8"/><path d="M132.45 84.13c-.39-.11-.51-.85-.28-1.65s.72-1.37 1.1-1.26c.23.07.38.38.39.79-.14-.45-.56-.49-.88-.07a2.91 2.91 0 00-.45 1.63c0 .33.16.56.43.51a.45.45 0 01-.31.05z" opacity=".3"/><path d="M123.8 74.71a10.4 10.4 0 01-.62-4.28c.22.71 1.29 1.15 3.32 1a25.78 25.78 0 002.63-.3l.49-.06.16 1.11-.49.07c-1.14.17-1 .26-2.59.6-1.99.39-2.89 1.15-2.9 1.86z" fill="#ba68c8"/><path d="M129.26 72.24c0-.18-.08-.36-.11-.56s0-.38-.05-.56l.52-.07.16 1.11z" opacity=".2"/><path d="M130.77 73.33a.57.57 0 00.29-.11h.06a.6.6 0 00.08-.08l.05-.07a2.6 2.6 0 00.2-1.6 2.68 2.68 0 00-.64-1.47l-.07-.06h-.16a1.06 1.06 0 00-.31 0 .68.68 0 00-.29.11c-.37.2-.57 1-.45 1.85s.54 1.56 1 1.65a.65.65 0 00.24-.22z" fill="#ba68c8"/><path d="M130.92 72.58c-.29 0-.59-.42-.68-1s.08-1.12.36-1.16.37.13.5.41c-.23-.26-.52-.17-.61.21a2.05 2.05 0 00.19 1.22c.13.22.27.33.44.22a.35.35 0 01-.2.1z" opacity=".3"/><path d="M121.92 66.81a29 29 0 01-1.69-2.68c.26.35.73.73 1.16.6a4.33 4.33 0 00.9-.4l.09-.06.35.57-.08.06a3.09 3.09 0 00-.73.65 1.13 1.13 0 000 1.26z" fill="#ba68c8"/><path d="M122.53 65a2 2 0 01-.19-.28 2.19 2.19 0 01-.17-.29l.21-.13.35.57z" opacity=".2"/><path d="M123.94 65.36a.69.69 0 00.17-.17v-.08a.13.13 0 010-.06 2.05 2.05 0 00-.36-1.18 2 2 0 00-.92-.84h-.26a.63.63 0 00-.23.08.55.55 0 00-.17.17c-.2.26-.1.86.27 1.44s.86.94 1.18.87a.63.63 0 00.32-.23z" fill="#ba68c8"/><path d="M123.81 64.78c-.2.12-.55-.11-.81-.51s-.3-.82-.11-.94.3 0 .49.14c-.25-.12-.43.05-.37.34a1.56 1.56 0 00.52.8c.16.11.29.15.37 0a.23.23 0 01-.09.17z" opacity=".3"/><path d="M116.34 89.88c-4.47 3-18.13 4-24.67-7.47s3.14-21.89 7.22-24a18.12 18.12 0 1017.45 31.51z" opacity=".1"/><path d="M95 75.1c.22 1.35-.41 2.58-1.43 2.75s-2-.78-2.24-2.12A2.23 2.23 0 0192.74 73c1.01-.19 2.02.76 2.26 2.1z" fill="#ba68c8"/><path d="M95 75.1c.22 1.35-.41 2.58-1.43 2.75s-2-.78-2.24-2.12A2.23 2.23 0 0192.74 73c1.01-.19 2.02.76 2.26 2.1z" opacity=".15"/><path d="M92.26 73.88c.37-.53 1.4-.14 1.69 1.09a2.15 2.15 0 01-.57 2.26.78.78 0 01-1-.36c.33.25.77.16 1-.38a2.41 2.41 0 00-.17-2.22c-.3-.4-.67-.54-.95-.39z" opacity=".15"/><path d="M116.5 78.74c.16-1.36 1.11-2.36 2.13-2.24a2.23 2.23 0 011.56 2.67c-.15 1.35-1.11 2.36-2.13 2.24a2.23 2.23 0 01-1.56-2.67z" fill="#ba68c8"/><path d="M116.5 78.74c.16-1.36 1.11-2.36 2.13-2.24a2.23 2.23 0 011.56 2.67c-.15 1.35-1.11 2.36-2.13 2.24a2.23 2.23 0 01-1.56-2.67z" opacity=".15"/><path d="M118.77 80.67c-.51.41-1.38-.25-1.32-1.51 0-1 .61-1.89 1.18-2a.77.77 0 01.9.64c-.24-.34-.69-.38-1.08.08A2.37 2.37 0 00118 80c.14.5.46.74.77.67z" opacity=".15"/><path d="M105 69.45a1.87 1.87 0 01-2.43-.91c-.25-.83.45-1.76 1.54-2.09a1.89 1.89 0 012.44.91c.29.83-.41 1.76-1.55 2.09z" fill="#ba68c8"/><path d="M105 69.45a1.87 1.87 0 01-2.43-.91c-.25-.83.45-1.76 1.54-2.09a1.89 1.89 0 012.44.91c.29.83-.41 1.76-1.55 2.09z" opacity=".15"/><path d="M105.79 67.05c.48.26.26 1.16-.74 1.52a1.79 1.79 0 01-1.94-.25.64.64 0 01.2-.9c-.18.3-.07.66.42.81a2 2 0 001.83-.36c.3-.27.38-.6.23-.82z" opacity=".15"/><path d="M103.42 79.6a2.24 2.24 0 011.37 2.78c-.46.91-1.83 1.16-3.05.54a1.94 1.94 0 111.68-3.32z" fill="#ba68c8"/><path d="M103.42 79.6a2.24 2.24 0 011.37 2.78c-.46.91-1.83 1.16-3.05.54a1.94 1.94 0 111.68-3.32z" opacity=".15"/><path d="M100.82 81.07c-.21-.61.71-1.21 1.88-.72.92.4 1.56 1.22 1.48 1.8a.79.79 0 01-.91.63c.41-.12.59-.52.3-1a2.4 2.4 0 00-1.89-1.18c-.49-.06-.81.16-.86.47z" opacity=".15"/><ellipse cx="101.82" cy="62.36" rx="2.47" ry="1.86" transform="rotate(-13.43 101.846 62.366)" fill="#ba68c8"/><ellipse cx="101.82" cy="62.36" rx="2.47" ry="1.86" transform="rotate(-13.43 101.846 62.366)" opacity=".15"/><path d="M103.29 61.37c.56.34.24 1.39-1 1.76a2.13 2.13 0 01-2.29-.42.77.77 0 01.29-1.06c-.24.35-.12.78.45 1a2.38 2.38 0 002.2-.32c.41-.33.52-.69.35-.96z" opacity=".15"/><path d="M110.47 78.44a2 2 0 012.74.14 2 2 0 01-.9 2.59 1.71 1.71 0 11-1.84-2.73z" fill="#ba68c8"/><path d="M110.47 78.44a2 2 0 012.74.14 2 2 0 01-.9 2.59 1.71 1.71 0 11-1.84-2.73z" opacity=".15"/><path d="M110.48 81.08c-.56-.11-.63-1.08.26-1.76a1.92 1.92 0 012-.37.7.7 0 01.09 1c.09-.37-.15-.69-.68-.69a2.11 2.11 0 00-1.72 1c-.2.3-.17.65.05.82z" opacity=".15"/><path d="M115.2 70.91c-1-1.58-.93-3.5.26-4.28s3-.14 4 1.43.93 3.5-.26 4.28-2.95.15-4-1.43z" fill="#ba68c8"/><path d="M115.2 70.91c-1-1.58-.93-3.5.26-4.28s3-.14 4 1.43.93 3.5-.26 4.28-2.95.15-4-1.43z" opacity=".15"/><path d="M119.34 70.93c-.18.88-1.69 1-2.75-.43-.84-1.1-1-2.54-.54-3.18a1.07 1.07 0 011.52-.13c-.57-.14-1.07.22-1.09 1.06A3.34 3.34 0 00118 71c.52.31 1.07.27 1.34-.07z" opacity=".15"/><path d="M96.93 83.12a1.45 1.45 0 11-2.29-.3 1.68 1.68 0 012.29.3z" fill="#ba68c8"/><path d="M96.93 83.12a1.45 1.45 0 11-2.29-.3 1.68 1.68 0 012.29.3z" opacity=".15"/><path d="M94.74 83.58c0-.49.79-.7 1.5-.09a1.61 1.61 0 01.65 1.62.59.59 0 01-.79.24c.31 0 .54-.24.45-.68a1.78 1.78 0 00-1.07-1.26c-.35-.13-.63-.04-.74.17z" opacity=".15"/><ellipse cx="105.01" cy="88.01" rx="1.89" ry="2.51" transform="rotate(-84.95 105.003 88.012)" fill="#ba68c8"/><ellipse cx="105.01" cy="88.01" rx="1.89" ry="2.51" transform="rotate(-84.95 105.003 88.012)" opacity=".15"/><path d="M103.27 88.49c-.42-.5.22-1.41 1.51-1.38 1 0 1.94.56 2.07 1.14a.79.79 0 01-.62.93c.34-.26.36-.71-.11-1.1a2.43 2.43 0 00-2.22-.4c-.47.17-.7.5-.63.81z" opacity=".15"/><path d="M112.91 85.32a1.26 1.26 0 11-.46 2 1.47 1.47 0 01.46-2z" fill="#ba68c8"/><path d="M112.91 85.32a1.26 1.26 0 11-.46 2 1.47 1.47 0 01.46-2z" opacity=".15"/><path d="M113.11 87.26c-.42 0-.54-.74.06-1.31a1.4 1.4 0 011.46-.42.51.51 0 01.14.71c0-.28-.16-.49-.55-.45a1.52 1.52 0 00-1.19.82c-.14.29-.09.54.08.65z" opacity=".15"/><path d="M110 63.24c-.86-.26-1.39-1-1.19-1.63a1.45 1.45 0 011.89-.69c.85.26 1.39 1 1.19 1.63a1.45 1.45 0 01-1.89.69z" fill="#ba68c8"/><path d="M110 63.24c-.86-.26-1.39-1-1.19-1.63a1.45 1.45 0 011.89-.69c.85.26 1.39 1 1.19 1.63a1.45 1.45 0 01-1.89.69z" opacity=".15"/><path d="M111.51 62c.2.38-.32.86-1.12.67-.64-.15-1.15-.6-1.15-1a.5.5 0 01.51-.5c-.25.12-.32.4-.08.71a1.58 1.58 0 001.34.54c.32-.03.51-.21.5-.42z" opacity=".15"/><path d="M100.34 73.11a1.46 1.46 0 01-1.13 1.68c-.67 0-1.25-.66-1.3-1.54A1.47 1.47 0 0199 71.57c.71-.04 1.29.65 1.34 1.54z" fill="#ba68c8"/><path d="M100.34 73.11a1.46 1.46 0 01-1.13 1.68c-.67 0-1.25-.66-1.3-1.54A1.47 1.47 0 0199 71.57c.71-.04 1.29.65 1.34 1.54z" opacity=".15"/><path d="M98.66 72.12c.28-.31.92 0 1 .83a1.38 1.38 0 01-.54 1.42.51.51 0 01-.65-.31c.2.19.49.17.69-.17a1.55 1.55 0 000-1.45c-.08-.28-.31-.39-.5-.32z" opacity=".15"/><path d="M111 71.89a1.26 1.26 0 111.93.59 1.45 1.45 0 01-1.93-.59z" fill="#ba68c8"/><path d="M111 71.89a1.26 1.26 0 111.93.59 1.45 1.45 0 01-1.93-.59z" opacity=".15"/><path d="M112.9 71.81c-.06.42-.77.49-1.3-.14a1.41 1.41 0 01-.32-1.49.51.51 0 01.71-.09c-.27 0-.5.13-.49.52a1.56 1.56 0 00.75 1.24c.28.15.53.15.65-.04z" opacity=".15"/><path d="M95.7 67a1.46 1.46 0 01-1.93.58 1.68 1.68 0 011.9-2.6A1.46 1.46 0 0195.7 67z" fill="#ba68c8"/><path d="M95.7 67a1.46 1.46 0 01-1.93.58 1.68 1.68 0 011.9-2.6A1.46 1.46 0 0195.7 67z" opacity=".15"/><path d="M95 65.17c.42-.07.7.59.26 1.28s-1 .88-1.31.76a.5.5 0 01-.31-.65c0 .28.27.44.65.31a1.58 1.58 0 001-1.09c.04-.31-.07-.55-.29-.61z" opacity=".15"/><path d="M107.77 76.74a2.47 2.47 0 11.65-3.17 2.3 2.3 0 01-.65 3.17z" fill="#ba68c8"/><path d="M107.77 76.74a2.47 2.47 0 11.65-3.17 2.3 2.3 0 01-.65 3.17z" opacity=".15"/><path d="M106.39 72.9c-.77 0-1.46.8-1.24 1.94s1.78 2 2.53 1.25a2.22 2.22 0 01-1.84-1.27 1.39 1.39 0 01.55-1.92z" opacity=".15"/><path d="M447.07 151.24a6.7 6.7 0 11-1.65-9.33 6.68 6.68 0 011.65 9.33z" fill="#ba68c8"/><path d="M446 142.45a3.08 3.08 0 01-1.25-.87c.24.11.64-.11 1.16-.77s.81-1.08 1.09-1.46l.11-.17.33.23-.12.16c-.27.39-.63 1-1 1.53s-.52 1.17-.32 1.35z" fill="#ba68c8"/><path d="M447.28 139.61a.81.81 0 01-.18-.1l-.15-.12.14-.21.33.23c-.05.06-.09.13-.14.2z" opacity=".2"/><path d="M447.94 139.49a.24.24 0 00.05-.1v-.09a1 1 0 00-.38-.46 1 1 0 00-.56-.2h-.12a.18.18 0 00-.09.08.21.21 0 000 .1c0 .16.12.4.38.59s.56.25.69.16a.2.2 0 00.03-.08z" fill="#ba68c8"/><path d="M447.78 139.26c-.06.09-.26.06-.45-.07s-.29-.31-.22-.39.13-.07.23 0c-.12 0-.17.09-.09.22a.79.79 0 00.37.25c.09 0 .16 0 .17-.06a.11.11 0 01-.01.05z" opacity=".3"/><path d="M443.6 141.07a3.58 3.58 0 01-1.5-.29c.26 0 .48 0 .67-.77s.17-.62.26-1v-.17l.39.07v.18c-.08.41-.08.45-.16 1.06s.09.85.34.92z" fill="#ba68c8"/><path d="M443.41 139.12h-.2L443 139c0-.09 0-.17.05-.24l.39.07c0 .17-.02.17-.03.29z" opacity=".2"/><path d="M444.1 138.69a.33.33 0 000-.14 1.34 1.34 0 00-1.33-.26.31.31 0 00-.06.13.57.57 0 000 .13c0 .19.32.38.7.45s.72 0 .82-.15a.29.29 0 00-.13-.16z" fill="#ba68c8"/><path d="M443.81 138.52c0 .13-.26.19-.52.14s-.46-.2-.43-.32.11-.13.24-.15c-.14.06-.14.19 0 .29a.9.9 0 00.54.09c.1 0 .17-.06.15-.15a.13.13 0 01.02.1z" opacity=".3"/><path d="M440.74 140.82a3.27 3.27 0 01-1.26.3c.21-.09.32-.4.22-1a3.67 3.67 0 00-.07-.52v-.13l.32-.08a1 1 0 000 .14 2.56 2.56 0 00.16.5c.17.58.41.81.63.79z" fill="#ba68c8"/><path d="M440 139.63l-.16.05h-.17v-.2l.32-.08c-.05.09.01.15.01.23z" opacity=".2"/><path d="M440.27 139.14a.18.18 0 000-.09.75.75 0 00-.5 0 .79.79 0 00-.44.23.17.17 0 000 .1.36.36 0 000 .09c.07.11.32.15.59.09s.47-.21.49-.34a.34.34 0 00-.14-.08z" fill="#ba68c8"/><path d="M440 139.11c0 .09-.12.2-.3.24s-.36 0-.38-.08 0-.12.12-.16c-.08.07 0 .16.08.18a.65.65 0 00.38-.09c.06 0 .09-.09.05-.14z" opacity=".3"/><path d="M438.23 141.67a3.35 3.35 0 01-1.22.92c.18-.2.1-.65-.36-1.33s-.76-1.09-1-1.47a1.33 1.33 0 01-.12-.16l.31-.24.12.16c.29.37.69.89 1.13 1.4s.91.83 1.14.72z" fill="#ba68c8"/><path d="M436 139.59a.86.86 0 01-.14.13 1.2 1.2 0 01-.17.11l-.15-.2.31-.24z" opacity=".2"/><path d="M436.13 138.75a.52.52 0 00-.11-.1h-.16a1.24 1.24 0 00-.69.28 1.21 1.21 0 00-.45.58v.08a.35.35 0 00.06.14.28.28 0 00.1.09.92.92 0 00.85-.23c.33-.25.51-.57.46-.76a.34.34 0 00-.06-.08z" fill="#ba68c8"/><path d="M435.79 138.85c.08.11 0 .34-.26.51s-.48.22-.56.11 0-.18.06-.29c0 .15.05.25.22.2a1 1 0 00.45-.35c.06-.1.08-.18 0-.23a.23.23 0 01.09.05z" opacity=".3"/><path d="M436.16 143.56a5.53 5.53 0 01-.7 1.26c.09-.22 0-.5-.35-.74s-.59-.38-.8-.5l-.09-.05.18-.33.09.05c.22.11.52.27.85.41s.66.1.82-.1z" fill="#ba68c8"/><path d="M434.55 143.28c0 .05-.05.11-.09.17a.86.86 0 01-.1.16l-.14-.08.18-.33z" opacity=".2"/><path d="M434.4 142.7h-.22a.87.87 0 00-.37.37.94.94 0 00-.12.52v.08a.24.24 0 00.08.06.17.17 0 00.1 0c.14 0 .34-.14.48-.4a.64.64 0 00.08-.62l-.03-.01z" fill="#ba68c8"/><path d="M434.21 142.86c.08 0 .07.23 0 .41s-.24.28-.33.23a.18.18 0 01-.05-.2c0 .11.11.14.21.06a.74.74 0 00.19-.36c0-.08 0-.14-.07-.14a.11.11 0 01.05 0z" opacity=".3"/><path d="M435.07 146.07a3.28 3.28 0 01-.13 1.52c0-.27-.41-.51-1.23-.62-.66-.1-1.31-.17-1.77-.21h-.2v-.39h.26c.47 0 1.12.08 1.79.11s1.21-.16 1.28-.41z" fill="#ba68c8"/><path d="M432 146.37a1.41 1.41 0 010 .2.69.69 0 010 .2h-.25v-.39z" opacity=".2"/><path d="M431.48 145.59h-.16a1.33 1.33 0 00-.28.76 1.26 1.26 0 00.15.8.53.53 0 00.15.05h.15c.21-.06.39-.42.43-.86s-.08-.83-.28-.92a.34.34 0 00-.16.17z" fill="#ba68c8"/><path d="M431.32 146c.14 0 .24.27.21.58s-.16.54-.31.53-.16-.11-.2-.26c.08.15.24.14.33 0a1.13 1.13 0 000-.62c0-.12-.1-.19-.2-.15a.15.15 0 01.17-.08z" opacity=".3"/><path d="M435.09 148.8a4.78 4.78 0 01.52 1.51c-.12-.25-.45-.36-1-.21s-.89.25-1.2.35l-.13.05-.14-.4h.13c.31-.11.74-.27 1.17-.46s.71-.57.65-.84z" fill="#ba68c8"/><path d="M433.3 150a1.19 1.19 0 01.08.2 1.17 1.17 0 01.06.2l-.18.06-.14-.4a1.27 1.27 0 00.18-.06z" opacity=".2"/><path d="M432.68 149.75a.21.21 0 00-.1.06 1.12 1.12 0 00.38 1.08h.1a.22.22 0 00.11 0 .21.21 0 00.1-.06c.12-.1.14-.39 0-.7s-.3-.53-.46-.53a.22.22 0 00-.13.15z" fill="#ba68c8"/><path d="M432.68 150c.1 0 .24.11.32.33s.05.41-.05.45-.15 0-.21-.12c.1.08.2 0 .2-.12a.79.79 0 00-.15-.43c-.06-.07-.12-.1-.17 0a.09.09 0 01.06-.11z" opacity=".3"/><path d="M436.35 151.5a10.93 10.93 0 01.8.86c-.12-.12-.32-.22-.46-.14a1.29 1.29 0 00-.3.21l-.17-.18a1.19 1.19 0 00.21-.28.41.41 0 00-.08-.47z" fill="#ba68c8"/><path d="M436.26 152.21a.38.38 0 01.09.09l.08.09-.07.06-.17-.18z" opacity=".2"/><path d="M435.72 152.17a.12.12 0 00-.05.07.73.73 0 00.22.4.67.67 0 00.39.24h.17a.12.12 0 00.05-.07c.06-.11 0-.32-.19-.51s-.38-.28-.5-.23a.15.15 0 00-.09.1z" fill="#ba68c8"/><path d="M435.81 152.37c.06-.06.2 0 .32.13s.17.27.11.33a.17.17 0 01-.19 0c.1 0 .15 0 .11-.15a.58.58 0 00-.24-.25h-.14a.06.06 0 01.03-.06z" opacity=".3"/><path d="M438.41 153.26a3.75 3.75 0 011.42.57c-.26-.06-.48-.06-.79.6s-.29.57-.44.95l-.07.16-.37-.15.07-.16c.15-.38.16-.42.34-1s.07-.83-.16-.97z" fill="#ba68c8"/><path d="M438.25 155.16l.2.06.17.09-.09.23-.37-.15c.03-.07.06-.14.09-.23z" opacity=".2"/><path d="M437.49 155.45a.3.3 0 000 .13v.11a1.12 1.12 0 00.56.42 1.13 1.13 0 00.7.08h.06a.25.25 0 00.19-.19.19.19 0 000-.13c0-.19-.24-.43-.6-.57a.84.84 0 00-.84 0 .3.3 0 00-.07.15z" fill="#ba68c8"/><path d="M437.74 155.67c.05-.12.29-.13.54 0s.41.27.36.39-.13.11-.26.1c.15 0 .18-.16.05-.28a.91.91 0 00-.5-.2c-.11 0-.19 0-.18.12a.12.12 0 01-.01-.13z" opacity=".3"/><path d="M441.2 154a3.09 3.09 0 011.28-.05c-.21 0-.38.32-.39.88a2.72 2.72 0 000 .52.61.61 0 000 .14h-.34v-.13a3.67 3.67 0 00-.07-.52c-.08-.53-.26-.84-.48-.84z" fill="#ba68c8"/><path d="M441.72 155.31h.34a1.48 1.48 0 000 .21h-.34a1.62 1.62 0 000-.21z" opacity=".2"/><path d="M441.33 155.73v.09a.83.83 0 00.49.11.88.88 0 00.48-.15.29.29 0 000-.09.17.17 0 000-.1c-.05-.12-.28-.21-.56-.2s-.5.12-.54.25a.24.24 0 00.13.09z" fill="#ba68c8"/><path d="M441.56 155.8c0-.09.15-.17.34-.18s.35.06.35.15-.05.11-.14.15c.09-.07.07-.16-.05-.2a.6.6 0 00-.38 0c-.07 0-.11.07-.08.13a.25.25 0 01-.04-.05z" opacity=".3"/><path d="M443.83 153.66a3.21 3.21 0 011.37-.67c-.21.16-.22.61.1 1.36s.54 1.21.74 1.63l.09.17-.36.18a1.51 1.51 0 00-.09-.18c-.2-.41-.5-1-.83-1.58s-.76-.98-1.02-.91z" fill="#ba68c8"/><path d="M445.66 156.1l.17-.1.19-.07c0 .08.07.15.11.22l-.36.18z" opacity=".2"/><path d="M445.33 156.9a.38.38 0 00.09.12h.07a1.14 1.14 0 00.72-.14 1.15 1.15 0 00.56-.49.32.32 0 000-.14.2.2 0 00-.09-.11c-.14-.14-.51-.12-.87.06s-.61.46-.59.66a.31.31 0 00.11.04z" fill="#ba68c8"/><path d="M445.68 156.86c-.05-.12.1-.32.36-.44s.5-.13.56 0 0 .18-.11.28c.08-.14 0-.26-.18-.24a1.06 1.06 0 00-.51.25c-.07.09-.1.17 0 .23a.22.22 0 01-.12-.08z" opacity=".3"/><path d="M446.46 152a6.06 6.06 0 01.86-1.17c-.12.22-.07.5.25.79s.52.44.71.59l.08.06-.22.3-.08-.06c-.2-.14-.48-.33-.78-.51s-.65-.22-.82 0z" fill="#ba68c8"/><path d="M448 152.43l.1-.15a1 1 0 01.12-.15l.13.1-.22.3z" opacity=".2"/><path d="M448.09 153a.15.15 0 00.09 0h.12a1 1 0 00.41-.33.82.82 0 00.19-.49.27.27 0 00-.07-.08.18.18 0 00-.09 0c-.14 0-.36.09-.53.33s-.24.49-.16.61z" fill="#ba68c8"/><path d="M448.3 152.89c-.08-.06-.05-.24.07-.4s.28-.25.36-.19a.21.21 0 010 .21c0-.11-.09-.16-.2-.09a.77.77 0 00-.23.33c0 .08 0 .14.05.15a.08.08 0 01-.05-.01z" opacity=".3"/><path d="M447.76 149.88a2.58 2.58 0 01.42-1.47c0 .27.41.6 1.41.93.23.08.75.31 1.32.47l.24.07-.11.38-.24-.07-1.35-.36c-1.02-.25-1.56-.18-1.69.05z" fill="#ba68c8"/><path d="M450.8 150.19a1.29 1.29 0 010-.19 1.07 1.07 0 01.07-.19l.24.07-.11.38z" opacity=".2"/><path d="M451.19 151.06a.45.45 0 00.16 0h.05a1.28 1.28 0 00.42-.69 1.31 1.31 0 000-.81.37.37 0 00-.14-.07.26.26 0 00-.15 0c-.22 0-.47.33-.59.76s-.08.83.1 1z" fill="#ba68c8"/><path d="M451.42 150.74c-.14 0-.19-.31-.1-.61s.26-.5.4-.46.14.14.15.29c-.05-.17-.21-.18-.33 0a1 1 0 00-.16.6c0 .13.06.21.16.19a.13.13 0 01-.12-.01z" opacity=".3"/><path d="M448.22 147.26a3.93 3.93 0 01-.23-1.58c.08.26.48.42 1.23.36s.55 0 1-.11h.18l.06.42h-.18c-.42.07-.35.1-1 .22s-1.05.43-1.06.69z" fill="#ba68c8"/><path d="M450.24 146.35v-.42h.19l.06.42z" opacity=".2"/><path d="M450.8 146.75h.11a1 1 0 00.07-.58 1 1 0 00-.24-.55.2.2 0 00-.11 0 .21.21 0 00-.11 0c-.14.07-.21.36-.17.68s.2.58.36.61a.2.2 0 00.09-.16z" fill="#ba68c8"/><path d="M450.85 146.47c-.1 0-.21-.15-.25-.38s0-.41.14-.43.13.05.18.15c-.08-.09-.19-.06-.23.08a.8.8 0 00.07.45c.05.08.1.13.17.08a.1.1 0 01-.08.05z" opacity=".3"/><path d="M447.53 144.34a9.82 9.82 0 01-.63-1c.1.13.27.27.43.22a1.75 1.75 0 00.33-.15l.13.21a1.37 1.37 0 00-.27.24.41.41 0 00.01.48z" fill="#ba68c8"/><path d="M447.75 143.66l-.07-.1-.06-.11h.08l.13.21z" opacity=".2"/><path d="M448.27 143.8s.05 0 .07-.06v-.07a.75.75 0 00-.13-.44.74.74 0 00-.34-.31h-.1a.16.16 0 00-.09 0l-.06.06c-.07.09 0 .32.1.53s.32.35.44.32a.11.11 0 00.11-.03z" fill="#ba68c8"/><path d="M448.22 143.59c-.07 0-.2 0-.29-.19s-.11-.3 0-.35a.18.18 0 01.17 0c-.08 0-.15 0-.13.13a.6.6 0 00.19.3c.06 0 .11.05.14 0a.09.09 0 01-.08.11z" opacity=".3"/><path d="M445.46 152.87a7 7 0 01-9.12-2.76c-2.41-4.22 1.16-8.1 2.67-8.89a6.63 6.63 0 00-2.92 2.35 6.7 6.7 0 009.37 9.3z" opacity=".1"/><path d="M437.57 147.41a.82.82 0 01-.53 1c-.37.07-.75-.29-.83-.78a.83.83 0 01.53-1c.37-.07.74.28.83.78z" fill="#ba68c8"/><path d="M437.57 147.41a.82.82 0 01-.53 1c-.37.07-.75-.29-.83-.78a.83.83 0 01.53-1c.37-.07.74.28.83.78z" opacity=".15"/><path d="M436.56 147c.14-.19.52 0 .62.41a.76.76 0 01-.21.83.29.29 0 01-.38-.13c.12.09.28.06.38-.14a.87.87 0 00-.07-.82c-.1-.15-.24-.25-.34-.15z" opacity=".15"/><path d="M445.52 148.75c.06-.5.41-.87.79-.83a.82.82 0 01.58 1c-.06.5-.41.87-.79.83a.83.83 0 01-.58-1z" fill="#ba68c8"/><path d="M445.52 148.75c.06-.5.41-.87.79-.83a.82.82 0 01.58 1c-.06.5-.41.87-.79.83a.83.83 0 01-.58-1z" opacity=".15"/><path d="M446.36 149.47c-.19.14-.51-.1-.49-.57a.8.8 0 01.44-.74.28.28 0 01.33.24c-.09-.13-.25-.14-.4 0a.88.88 0 00-.17.8c.06.2.18.29.29.27z" opacity=".15"/><path d="M441.29 145.31a.7.7 0 01-.9-.33c-.1-.31.16-.65.57-.77a.7.7 0 01.9.33c.14.31-.17.65-.57.77z" fill="#ba68c8"/><path d="M441.29 145.31a.7.7 0 01-.9-.33c-.1-.31.16-.65.57-.77a.7.7 0 01.9.33c.14.31-.17.65-.57.77z" opacity=".15"/><path d="M441.56 144.43c.18.09.1.43-.27.56a.67.67 0 01-.72-.09.26.26 0 01.07-.34c-.06.12 0 .25.16.31a.77.77 0 00.68-.14c.11-.1.14-.22.08-.3z" opacity=".15"/><path d="M440.68 149.07a.71.71 0 11-.61 1.23.83.83 0 01-.51-1 .81.81 0 011.12-.23z" fill="#ba68c8"/><path d="M440.68 149.07a.71.71 0 11-.61 1.23.83.83 0 01-.51-1 .81.81 0 011.12-.23z" opacity=".15"/><path d="M439.72 149.61c-.07-.22.27-.45.7-.26s.58.45.55.66a.29.29 0 01-.34.23c.15 0 .22-.19.11-.39a.89.89 0 00-.7-.43c-.18 0-.3.08-.32.19z" opacity=".15"/><path d="M440.25 143.36a.81.81 0 01-1-.45c-.09-.37.23-.77.73-.89a.82.82 0 011 .46c.09.37-.23.77-.73.88z" fill="#ba68c8"/><path d="M440.25 143.36a.81.81 0 01-1-.45c-.09-.37.23-.77.73-.89a.82.82 0 011 .46c.09.37-.23.77-.73.88z" opacity=".15"/><path d="M440.64 142.33c.2.12.09.51-.36.65a.79.79 0 01-.85-.16.28.28 0 01.11-.39c-.09.13 0 .29.17.37a.88.88 0 00.81-.12c.14-.11.18-.25.12-.35z" opacity=".15"/><path d="M443.29 148.64a.63.63 0 11-.33 1 .73.73 0 01.33-1z" fill="#ba68c8"/><path d="M443.29 148.64a.63.63 0 11-.33 1 .73.73 0 01.33-1z" opacity=".15"/><path d="M443.3 149.61c-.21 0-.23-.39.09-.65a.69.69 0 01.75-.13.27.27 0 010 .36c0-.14-.06-.25-.26-.26a.79.79 0 00-.63.35c-.05.14-.03.27.05.33z" opacity=".15"/><path d="M445 145.85a1 1 0 111.5.53 1.15 1.15 0 01-1.5-.53z" fill="#ba68c8"/><path d="M445 145.85a1 1 0 111.5.53 1.15 1.15 0 01-1.5-.53z" opacity=".15"/><path d="M446.57 145.86c-.06.33-.62.36-1-.16a1.1 1.1 0 01-.2-1.17.4.4 0 01.57-.05c-.21 0-.4.08-.4.39a1.18 1.18 0 00.54 1c.19.13.39.13.49-.01z" opacity=".15"/><path d="M438.28 150.37a.62.62 0 01.13.85.71.71 0 01-1-1 .61.61 0 01.87.15z" fill="#ba68c8"/><path d="M438.28 150.37a.62.62 0 01.13.85.71.71 0 01-1-1 .61.61 0 01.87.15z" opacity=".15"/><path d="M437.48 150.54c0-.18.29-.26.55 0a.6.6 0 01.24.6.21.21 0 01-.29.08c.11 0 .2-.08.17-.25a.67.67 0 00-.4-.46c-.13-.08-.23-.05-.27.03z" opacity=".15"/><path d="M441.34 151.48c.51.05.89.4.86.78s-.48.66-1 .62-.9-.4-.86-.78.48-.66 1-.62z" fill="#ba68c8"/><path d="M441.34 151.48c.51.05.89.4.86.78s-.48.66-1 .62-.9-.4-.86-.78.48-.66 1-.62z" opacity=".15"/><path d="M440.63 152.36c-.16-.19.08-.53.56-.52s.71.21.76.43a.28.28 0 01-.23.34c.13-.09.14-.26 0-.41a.87.87 0 00-.82-.14c-.21.06-.3.18-.27.3z" opacity=".15"/><path d="M444.19 151.18a.54.54 0 01.75 0 .53.53 0 01-.17.72.55.55 0 01-.75 0 .55.55 0 01.17-.72z" fill="#ba68c8"/><path d="M444.19 151.18a.54.54 0 01.75 0 .53.53 0 01-.17.72.55.55 0 01-.75 0 .55.55 0 01.17-.72z" opacity=".15"/><path d="M444.27 151.9c-.16 0-.2-.27 0-.48a.52.52 0 01.54-.16.18.18 0 01.05.26c0-.1-.06-.18-.2-.16a.56.56 0 00-.44.3c-.03.11-.01.2.05.24z" opacity=".15"/><path d="M443.12 143a.55.55 0 01-.44-.61.54.54 0 01.7-.25c.32.1.51.36.44.6a.54.54 0 01-.7.26z" fill="#ba68c8"/><path d="M443.12 143a.55.55 0 01-.44-.61.54.54 0 01.7-.25c.32.1.51.36.44.6a.54.54 0 01-.7.26z" opacity=".15"/><path d="M443.68 142.56c.07.14-.12.32-.42.25s-.42-.23-.42-.37a.17.17 0 01.19-.18c-.1 0-.12.14 0 .26a.56.56 0 00.49.2c.09-.02.16-.08.16-.16z" opacity=".15"/><path d="M439.55 146.67c0 .33-.17.61-.42.62s-.46-.24-.48-.57.17-.61.41-.62a.55.55 0 01.49.57z" fill="#ba68c8"/><path d="M439.55 146.67c0 .33-.17.61-.42.62s-.46-.24-.48-.57.17-.61.41-.62a.55.55 0 01.49.57z" opacity=".15"/><path d="M438.93 146.3c.1-.11.34 0 .37.31s-.06.47-.2.52a.18.18 0 01-.24-.11c.08.07.18.06.26-.06a.59.59 0 000-.54c-.04-.1-.12-.15-.19-.12z" opacity=".15"/><path d="M443.47 146.22a.55.55 0 010-.75.54.54 0 01.72.22.54.54 0 010 .74.55.55 0 01-.72-.21z" fill="#ba68c8"/><path d="M443.47 146.22a.55.55 0 010-.75.54.54 0 01.72.22.54.54 0 010 .74.55.55 0 01-.72-.21z" opacity=".15"/><path d="M444.19 146.19c0 .15-.28.18-.48-.06a.52.52 0 01-.12-.54.18.18 0 01.26 0c-.09 0-.18 0-.18.19a.61.61 0 00.28.46c.1.02.2.01.24-.05z" opacity=".15"/><path d="M437.83 144.41a.53.53 0 01-.71.21.52.52 0 010-.74.54.54 0 01.71-.22.55.55 0 010 .75z" fill="#ba68c8"/><path d="M437.83 144.41a.53.53 0 01-.71.21.52.52 0 010-.74.54.54 0 01.71-.22.55.55 0 010 .75z" opacity=".15"/><path d="M437.58 143.73c.16 0 .26.22.1.48a.53.53 0 01-.49.28.19.19 0 01-.11-.24c0 .1.1.16.24.11a.59.59 0 00.35-.4c.02-.12-.02-.21-.09-.23z" opacity=".15"/><path d="M442.3 148a.92.92 0 11.24-1.17.86.86 0 01-.24 1.17z" fill="#ba68c8"/><path d="M442.3 148a.92.92 0 11.24-1.17.86.86 0 01-.24 1.17z" opacity=".15"/><path d="M441.78 146.59c-.28 0-.54.29-.45.72s.65.74.93.46a.83.83 0 01-.68-.47.53.53 0 01.2-.71z" opacity=".15"/><path d="M375.26 79a12.19 12.19 0 11-3-17 12.19 12.19 0 013 17z" fill="#ba68c8"/><path d="M373.27 63a5.85 5.85 0 01-2.27-1.57c.44.2 1.17-.2 2.11-1.4.77-1 1.48-2 2-2.67a2.73 2.73 0 00.21-.3l.59.42-.2.3c-.5.71-1.16 1.71-1.82 2.77-.84 1.3-.96 2.12-.62 2.45z" fill="#ba68c8"/><path d="M375.62 57.85a2.16 2.16 0 01-.31-.19 2.09 2.09 0 01-.28-.22l.26-.38.59.42c-.08.11-.16.24-.26.37z" opacity=".2"/><path d="M376.84 57.63a.46.46 0 00.08-.19v-.07a.2.2 0 000-.07 2.09 2.09 0 00-1.72-1.3h-.17a.52.52 0 00-.16.14.49.49 0 00-.07.19c-.08.28.21.73.7 1.07s1 .46 1.25.29a.49.49 0 00.09-.06z" fill="#ba68c8"/><path d="M376.54 57.21c-.12.16-.48.1-.82-.13s-.52-.56-.4-.72.23-.11.43 0c-.24 0-.33.18-.18.4a1.5 1.5 0 00.69.47c.16 0 .28 0 .3-.12a.24.24 0 01-.02.1z" opacity=".3"/><path d="M368.93 60.49a6.38 6.38 0 01-2.72-.52c.48 0 .87-.07 1.21-1.39.28-1.08.33-1.14.48-1.9l.06-.32.71.14c0 .1 0 .2-.06.32-.14.76-.14.83-.29 1.93-.18 1.36.17 1.58.61 1.74z" fill="#ba68c8"/><path d="M368.58 56.94a1.59 1.59 0 01-.36 0 2 2 0 01-.35-.09q0-.24.09-.45l.71.14z" opacity=".2"/><path d="M369.85 56.17a.7.7 0 000-.25v-.05a.3.3 0 000-.08 2.41 2.41 0 00-2.43-.47h-.06l-.06.06a.6.6 0 00-.1.23.48.48 0 000 .24c.05.34.58.69 1.27.82s1.32 0 1.5-.28a.58.58 0 00-.12-.22z" fill="#ba68c8"/><path d="M369.32 55.86c0 .23-.47.34-.94.25s-.83-.35-.79-.58.2-.24.44-.27c-.26.1-.26.35 0 .52a1.76 1.76 0 001 .18c.2 0 .32-.12.28-.28a.25.25 0 01.01.18z" opacity=".3"/><path d="M363.73 60.05a5.82 5.82 0 01-2.28.53c.37-.15.57-.71.4-1.75a7.72 7.72 0 00-.14-.95c0-.08 0-.17-.06-.24l.6-.14a2.1 2.1 0 00.06.24 5.88 5.88 0 00.29.92c.3 1 .73 1.42 1.13 1.39z" fill="#ba68c8"/><path d="M362.34 57.87a2.11 2.11 0 01-.3.1 1.54 1.54 0 01-.3 0c0-.13-.06-.26-.09-.37l.6-.14a2.83 2.83 0 00.09.41z" opacity=".2"/><path d="M362.89 57a.8.8 0 00-.08-.16h-.05a1.49 1.49 0 00-.91 0 1.52 1.52 0 00-.8.44v.06a.28.28 0 000 .18.46.46 0 00.07.16 1.09 1.09 0 001.07.16c.49-.11.86-.37.89-.62a.48.48 0 00-.19-.22z" fill="#ba68c8"/><path d="M362.45 56.94c0 .16-.21.36-.54.44s-.65 0-.68-.15.06-.21.21-.3c-.14.14-.07.3.15.33a1.2 1.2 0 00.68-.16c.11-.09.17-.17.1-.26a.19.19 0 01.08.1z" opacity=".3"/><path d="M359.16 61.58a5.76 5.76 0 01-2.16 1.68c.32-.36.18-1.17-.66-2.42-.69-1-1.39-2-1.9-2.67l-.21-.29.57-.43.22.29c.52.67 1.26 1.61 2 2.55.98 1.15 1.72 1.51 2.14 1.29z" fill="#ba68c8"/><path d="M355 57.81l-.27.24-.31.2c-.1-.13-.19-.25-.27-.37l.57-.43z" opacity=".2"/><path d="M355.34 56.27a.55.55 0 00-.2-.17h-.05L355 56h-.12a2.19 2.19 0 00-1.25.5 2.23 2.23 0 00-.83 1.07v.18a.13.13 0 000 .06.52.52 0 00.11.24.77.77 0 00.19.17c.3.19.95 0 1.54-.43s.93-1 .83-1.37a.54.54 0 00-.13-.15z" fill="#ba68c8"/><path d="M354.73 56.47c.14.19-.07.6-.48.91s-.86.4-1 .21 0-.33.11-.53c-.1.27.09.45.4.36a1.75 1.75 0 00.82-.63c.11-.19.13-.34 0-.42a.32.32 0 01.15.1z" opacity=".3"/><path d="M355.4 65a10.24 10.24 0 01-1.28 2.31c.18-.41 0-.91-.63-1.36s-1.06-.68-1.45-.9a.7.7 0 00-.17-.09l.34-.61.16.09c.39.22.95.49 1.54.75s1.23.2 1.49-.19z" fill="#ba68c8"/><path d="M352.47 64.52l-.16.31a2.82 2.82 0 01-.18.29l-.26-.14.34-.61z" opacity=".2"/><path d="M352.19 63.46a.43.43 0 00-.18-.06h-.16a1.54 1.54 0 00-.67.69 1.49 1.49 0 00-.22.93.11.11 0 000 .05.14.14 0 000 .06.33.33 0 00.14.12.49.49 0 00.17.06c.26 0 .63-.26.89-.73s.31-.94.14-1.13a.41.41 0 00-.11.01z" fill="#ba68c8"/><path d="M351.85 63.76c.15.09.13.42-.05.74s-.44.51-.6.43-.12-.2-.09-.38c0 .2.2.27.38.12a1.35 1.35 0 00.35-.65c0-.15 0-.26-.13-.27a.22.22 0 01.14.01z" opacity=".3"/><path d="M353.41 69.59a5.75 5.75 0 01-.23 2.76c-.05-.47-.74-.91-2.23-1.12-1.21-.17-2.38-.3-3.23-.38h-.36l.07-.72h.35c.85.07 2 .15 3.25.19 1.5.04 2.26-.27 2.38-.73z" fill="#ba68c8"/><path d="M347.88 70.14a1.45 1.45 0 010 .36 3.48 3.48 0 01-.05.36h-.46l.07-.72z" opacity=".2"/><path d="M346.88 68.73a.57.57 0 00-.29 0h-.21a2.35 2.35 0 00-.51 1.39 2.4 2.4 0 00.26 1.44l.05.06.08.07h.05a.71.71 0 00.28.09.65.65 0 00.28 0c.38-.11.71-.76.78-1.57s-.15-1.5-.5-1.67a.77.77 0 00-.27.19z" fill="#ba68c8"/><path d="M346.59 69.37c.26 0 .44.5.39 1.06s-.3 1-.57 1-.29-.2-.36-.48c.15.28.44.26.6-.06a2 2 0 00.08-1.13c-.07-.22-.17-.35-.34-.29a.31.31 0 01.2-.1z" opacity=".3"/><path d="M353.46 74.56a9.19 9.19 0 011 2.75c-.22-.45-.83-.66-1.86-.39-.83.22-1.62.46-2.19.65l-.24.08-.25-.71.24-.09c.56-.2 1.34-.49 2.13-.84.92-.42 1.27-.96 1.17-1.45z" fill="#ba68c8"/><path d="M350.2 76.82l.15.35c0 .13.07.25.1.37l-.33.11-.25-.71z" opacity=".2"/><path d="M349.07 76.29a.42.42 0 00-.18.11v.12a1.74 1.74 0 00.08 1.08 1.78 1.78 0 00.6.89h.19a.53.53 0 00.21 0 .59.59 0 00.17-.1 1.29 1.29 0 00.06-1.28c-.19-.57-.55-1-.84-1a.47.47 0 00-.29.18z" fill="#ba68c8"/><path d="M349.07 76.81c.18-.07.44.2.57.59s.1.75-.09.82-.25 0-.38-.21c.18.14.37 0 .38-.22a1.44 1.44 0 00-.28-.79c-.11-.12-.22-.18-.32-.08a.18.18 0 01.12-.11z" opacity=".3"/><path d="M355.74 79.48A19.06 19.06 0 01357.2 81c-.22-.2-.58-.39-.84-.25a3.06 3.06 0 00-.54.38h-.06l-.3-.33h.05a2.07 2.07 0 00.39-.53.72.72 0 00-.16-.79z" fill="#ba68c8"/><path d="M355.58 80.76l.16.16.15.17-.13.12-.3-.33z" opacity=".2"/><path d="M354.6 80.69a.31.31 0 00-.1.13.13.13 0 000 .06V81a1.28 1.28 0 00.39.74 1.33 1.33 0 00.71.44h.18a.39.39 0 00.14-.08.38.38 0 00.08-.1c.1-.2-.05-.59-.36-.92s-.69-.51-.9-.42a.26.26 0 00-.14.03z" fill="#ba68c8"/><path d="M354.76 81.05c.11-.1.37 0 .59.24s.3.5.19.6-.19 0-.33 0c.17 0 .27-.08.2-.27a1.11 1.11 0 00-.45-.46c-.12-.06-.21-.06-.25 0a.17.17 0 01.05-.11z" opacity=".3"/><path d="M359.5 82.68a6.75 6.75 0 012.58 1c-.47-.1-.87-.1-1.44 1.1-.46 1-.52 1-.81 1.73l-.12.29-.67-.27.12-.29c.28-.7.29-.77.63-1.8.42-1.23.12-1.51-.29-1.76z" fill="#ba68c8"/><path d="M359.21 86.14a1.57 1.57 0 01.35.11 2.53 2.53 0 01.33.16c-.07.15-.12.29-.18.42l-.67-.27c.06-.13.11-.27.17-.42z" opacity=".2"/><path d="M357.82 86.66a.67.67 0 000 .24v.1a.19.19 0 000 .08v.07a2.09 2.09 0 001 .77 2.07 2.07 0 001.27.15h.14a.8.8 0 00.15-.21.67.67 0 000-.24c0-.34-.45-.78-1.1-1s-1.29-.26-1.52 0a.6.6 0 00.06.04z" fill="#ba68c8"/><path d="M358.28 87.06c.09-.21.53-.24 1-.06s.75.5.66.72-.24.19-.48.18c.27-.06.32-.3.09-.51a1.62 1.62 0 00-.91-.36c-.2 0-.34.06-.33.22a.25.25 0 01-.03-.19z" opacity=".3"/><path d="M364.57 84.05a6.07 6.07 0 012.34-.09c-.4.08-.7.59-.73 1.62a7.69 7.69 0 000 .94 2 2 0 000 .25h-.61v-.24a5.57 5.57 0 00-.12-.94c-.14-1.01-.45-1.49-.88-1.54z" fill="#ba68c8"/><path d="M365.52 86.41h.61v.39h-.61c.01-.13.01-.26 0-.39z" opacity=".2"/><path d="M364.82 87.17a.47.47 0 000 .17 1.46 1.46 0 00.89.21 1.55 1.55 0 00.87-.27v-.05a.39.39 0 000-.18.48.48 0 000-.17c-.09-.22-.51-.38-1-.36s-.91.21-1 .44a.32.32 0 00.24.21z" fill="#ba68c8"/><path d="M365.23 87.3c0-.16.27-.31.62-.32s.63.11.64.27-.1.2-.26.26c.16-.11.12-.29-.09-.36a1.25 1.25 0 00-.7 0c-.13.06-.2.14-.15.24a.34.34 0 01-.06-.09z" opacity=".3"/><path d="M369.36 83.41a5.93 5.93 0 012.49-1.23c-.38.29-.4 1.11.18 2.49.48 1.12 1 2.19 1.35 3l.16.32-.65.32c-.05-.1-.1-.21-.16-.32-.38-.76-.92-1.8-1.52-2.87-.73-1.36-1.39-1.84-1.85-1.71z" fill="#ba68c8"/><path d="M372.69 87.85a2.29 2.29 0 01.31-.18 2.44 2.44 0 01.34-.14c.07.15.13.28.2.41l-.65.32z" opacity=".2"/><path d="M372.09 89.3a.69.69 0 00.16.21h.25a2.15 2.15 0 001.32-.25 2.21 2.21 0 001-.89v-.07a.29.29 0 000-.09v-.01a.57.57 0 00-.06-.25.53.53 0 00-.16-.2c-.26-.25-.93-.21-1.59.12s-1.01.83-1.01 1.18a.54.54 0 00.09.25z" fill="#ba68c8"/><path d="M372.73 89.23c-.11-.22.18-.58.64-.81s.92-.23 1 0 0 .32-.2.5c.15-.25 0-.46-.33-.43a1.78 1.78 0 00-.93.46c-.14.16-.19.31-.06.41a.26.26 0 01-.12-.13z" opacity=".3"/><path d="M374.15 80.32a10 10 0 011.56-2.13c-.23.39-.14.9.44 1.42s1 .81 1.31 1.08l.15.11-.41.55-.15-.11c-.36-.26-.87-.6-1.41-.92s-1.19-.32-1.49 0z" fill="#ba68c8"/><path d="M377 81.18l.19-.29a3.2 3.2 0 01.22-.27l.24.18-.41.55z" opacity=".2"/><path d="M377.1 82.26a.38.38 0 00.17.08h.21a1.86 1.86 0 001.1-1.5.64.64 0 000-.07.44.44 0 00-.29-.22c-.24-.07-.65.18-1 .61s-.42.89-.28 1.11a.49.49 0 00.09-.01z" fill="#ba68c8"/><path d="M377.48 82c-.14-.1-.08-.42.14-.72s.5-.45.65-.35.09.21 0 .39c0-.21-.15-.29-.35-.17a1.3 1.3 0 00-.43.6c0 .15 0 .26.1.28a.17.17 0 01-.11-.03z" opacity=".3"/><path d="M376.5 76.53a4.69 4.69 0 01.76-2.67c0 .48.76 1.09 2.57 1.69.43.14 1.37.55 2.41.85l.43.13-.19.69-.48-.12c-1-.29-2.15-.6-2.46-.67-1.81-.43-2.8-.33-3.04.1z" fill="#ba68c8"/><path d="M382 77.1a2.29 2.29 0 01.07-.36 3.42 3.42 0 01.13-.34l.43.13-.19.69z" opacity=".2"/><path d="M382.75 78.67a.72.72 0 00.29 0h.24a2.44 2.44 0 00.76-1.27 2.36 2.36 0 000-1.47v-.12l-.06-.08a.64.64 0 00-.26-.13.54.54 0 00-.28 0c-.39 0-.84.6-1.06 1.38s-.14 1.51.18 1.74a.56.56 0 00.19-.05z" fill="#ba68c8"/><path d="M383.16 78.1c-.25-.08-.34-.57-.19-1.11s.49-.92.75-.85.25.25.26.53c-.09-.3-.38-.33-.6 0a1.92 1.92 0 00-.29 1.1c0 .23.1.38.28.35a.31.31 0 01-.21-.02z" opacity=".3"/><path d="M377.34 71.76a7.07 7.07 0 01-.41-2.88c.15.48.86.78 2.23.66a17.51 17.51 0 001.77-.2h.33l.1.75h-.32c-.77.12-.65.18-1.74.41-1.3.27-1.95.76-1.96 1.26z" fill="#ba68c8"/><path d="M381 70.1a3.7 3.7 0 01-.07-.38v-.38h.35l.1.75z" opacity=".2"/><path d="M382 70.83a.43.43 0 00.2-.07h.06a1.67 1.67 0 00.13-1.07 1.76 1.76 0 00-.42-1h-.13a.47.47 0 00-.21 0 .62.62 0 00-.19.07c-.25.14-.39.66-.3 1.25s.36 1.05.64 1.11a.44.44 0 00.22-.29z" fill="#ba68c8"/><path d="M382.13 70.33c-.19 0-.39-.28-.45-.69s.05-.76.24-.79.25.1.34.28c-.16-.18-.36-.11-.42.14a1.46 1.46 0 00.13.83c.09.14.18.22.3.14a.24.24 0 01-.14.09z" opacity=".3"/><path d="M376.08 66.44a17.49 17.49 0 01-1.13-1.8c.17.24.49.5.77.4a3.36 3.36 0 00.61-.26h.06l.24.38h-.06a2.29 2.29 0 00-.49.44.76.76 0 000 .84z" fill="#ba68c8"/><path d="M376.49 65.21c0-.06-.09-.12-.13-.19l-.11-.19.14-.09.24.38z" opacity=".2"/><path d="M377.44 65.47a.38.38 0 00.11-.11 1.31 1.31 0 00-.24-.79 1.4 1.4 0 00-.61-.57h-.18a.44.44 0 00-.16.06.38.38 0 00-.11.11c-.14.18-.07.58.18 1s.58.63.8.59z" fill="#ba68c8"/><path d="M377.35 65.08c-.13.08-.37-.07-.54-.34s-.2-.55-.07-.63.2 0 .32.09c-.16-.08-.28 0-.25.23a1.13 1.13 0 00.35.54c.11.07.2.1.26 0a.26.26 0 01-.07.11z" opacity=".3"/><path d="M372.32 82c-3 2-12.19 2.67-16.59-5s2.11-14.73 4.86-16.17A12.19 12.19 0 10372.32 82z" opacity=".1"/><path d="M358 72a1.51 1.51 0 01-1 1.85c-.68.11-1.35-.53-1.51-1.44a1.5 1.5 0 011-1.84c.64-.09 1.32.55 1.51 1.43z" fill="#ba68c8"/><path d="M358 72a1.51 1.51 0 01-1 1.85c-.68.11-1.35-.53-1.51-1.44a1.5 1.5 0 011-1.84c.64-.09 1.32.55 1.51 1.43z" opacity=".15"/><path d="M356.13 71.2c.25-.35.94-.09 1.14.74a1.43 1.43 0 01-.39 1.51.51.51 0 01-.7-.24c.22.18.52.11.69-.25a1.61 1.61 0 00-.12-1.49c-.18-.27-.43-.36-.62-.27z" opacity=".15"/><path d="M372.43 74.47c.11-.91.75-1.59 1.44-1.51a1.5 1.5 0 011.05 1.8c-.11.91-.75 1.59-1.44 1.51a1.52 1.52 0 01-1.05-1.8z" fill="#ba68c8"/><path d="M372.43 74.47c.11-.91.75-1.59 1.44-1.51a1.5 1.5 0 011.05 1.8c-.11.91-.75 1.59-1.44 1.51a1.52 1.52 0 01-1.05-1.8z" opacity=".15"/><path d="M374 75.77c-.34.27-.93-.17-.88-1 0-.67.4-1.27.79-1.35a.52.52 0 01.6.43c-.16-.23-.46-.25-.73 0a1.63 1.63 0 00-.3 1.47c.06.34.28.5.52.45z" opacity=".15"/><path d="M364.73 68.22a1.26 1.26 0 01-1.64-.61c-.17-.55.3-1.18 1-1.4a1.09 1.09 0 11.6 2z" fill="#ba68c8"/><path d="M364.73 68.22a1.26 1.26 0 01-1.64-.61c-.17-.55.3-1.18 1-1.4a1.09 1.09 0 11.6 2z" opacity=".15"/><path d="M365.23 66.61c.32.17.17.78-.5 1a1.2 1.2 0 01-1.3-.16.44.44 0 01.13-.61c-.12.2 0 .44.28.55a1.38 1.38 0 001.23-.25c.21-.14.26-.38.16-.53z" opacity=".15"/><path d="M363.63 75.05a1.3 1.3 0 11-1.12 2.24 1.3 1.3 0 111.12-2.24z" fill="#ba68c8"/><path d="M363.63 75.05a1.3 1.3 0 11-1.12 2.24 1.3 1.3 0 111.12-2.24z" opacity=".15"/><path d="M361.88 76c-.13-.41.49-.81 1.27-.48.62.26 1.05.82 1 1.21a.52.52 0 01-.61.42c.28-.08.4-.35.2-.71a1.61 1.61 0 00-1.26-.79c-.34.03-.56.18-.6.35z" opacity=".15"/><path d="M362.85 64.67a1.51 1.51 0 01-1.91-.83c-.16-.67.44-1.39 1.33-1.6a1.5 1.5 0 011.91.83c.16.67-.44 1.39-1.33 1.6z" fill="#ba68c8"/><path d="M362.85 64.67a1.51 1.51 0 01-1.91-.83c-.16-.67.44-1.39 1.33-1.6a1.5 1.5 0 011.91.83c.16.67-.44 1.39-1.33 1.6z" opacity=".15"/><path d="M363.55 62.79c.37.23.16.93-.65 1.18a1.42 1.42 0 01-1.54-.28.52.52 0 01.19-.72c-.16.24-.08.53.3.67a1.63 1.63 0 001.48-.21c.26-.2.33-.43.22-.64z" opacity=".15"/><path d="M368.38 74.27a1.15 1.15 0 11-.6 1.74 1.33 1.33 0 01.6-1.74z" fill="#ba68c8"/><path d="M368.38 74.27a1.15 1.15 0 11-.6 1.74 1.33 1.33 0 01.6-1.74z" opacity=".15"/><path d="M368.38 76c-.37-.07-.42-.72.18-1.18a1.26 1.26 0 011.36-.24.45.45 0 01.06.65c.06-.24-.09-.46-.45-.46a1.43 1.43 0 00-1.16.64.44.44 0 00.01.59z" opacity=".15"/><path d="M371.56 69.2a1.8 1.8 0 112.89-1.91 1.8 1.8 0 11-2.89 1.91z" fill="#ba68c8"/><path d="M371.56 69.2a1.8 1.8 0 112.89-1.91 1.8 1.8 0 11-2.89 1.91z" opacity=".15"/><path d="M374.34 69.22c-.11.59-1.14.65-1.85-.29a2 2 0 01-.36-2.14.73.73 0 011-.09c-.38-.09-.72.15-.73.71a2.23 2.23 0 001 1.83c.39.24.76.21.94-.02z" opacity=".15"/><path d="M359.27 77.42a1 1 0 11-1.54-.2 1.13 1.13 0 011.54.2z" fill="#ba68c8"/><path d="M359.27 77.42a1 1 0 11-1.54-.2 1.13 1.13 0 011.54.2z" opacity=".15"/><path d="M357.8 77.73c0-.33.53-.47 1-.06a1.08 1.08 0 01.43 1.09.39.39 0 01-.53.16c.21 0 .36-.16.3-.46a1.19 1.19 0 00-.72-.85c-.22-.08-.41-.02-.48.12z" opacity=".15"/><path d="M364.82 79.44c.93.08 1.63.72 1.57 1.42a1.53 1.53 0 01-1.8 1.12c-.93-.08-1.63-.72-1.57-1.42a1.53 1.53 0 011.8-1.12z" fill="#ba68c8"/><path d="M364.82 79.44c.93.08 1.63.72 1.57 1.42a1.53 1.53 0 01-1.8 1.12c-.93-.08-1.63-.72-1.57-1.42a1.53 1.53 0 011.8-1.12z" opacity=".15"/><path d="M363.54 81c-.29-.34.14-1 1-.93.68 0 1.3.38 1.39.77a.53.53 0 01-.42.63c.23-.18.25-.48-.07-.74a1.61 1.61 0 00-1.5-.27c-.3.14-.45.36-.4.54z" opacity=".15"/><path d="M370 78.9a.85.85 0 111 1.25 1 1 0 01-1.35.07 1 1 0 01.35-1.32z" fill="#ba68c8"/><path d="M370 78.9a.85.85 0 111 1.25 1 1 0 01-1.35.07 1 1 0 01.35-1.32z" opacity=".15"/><path d="M370.16 80.2c-.29 0-.37-.5 0-.88a1 1 0 011-.28.35.35 0 01.09.48c0-.19-.1-.33-.37-.31a1.07 1.07 0 00-.8.56c-.08.23-.08.36.08.43z" opacity=".15"/><path d="M368.07 64c-.58-.17-.94-.66-.8-1.09a1 1 0 011.27-.47c.57.18.93.67.8 1.1a1 1 0 01-1.27.46z" fill="#ba68c8"/><path d="M368.07 64c-.58-.17-.94-.66-.8-1.09a1 1 0 011.27-.47c.57.18.93.67.8 1.1a1 1 0 01-1.27.46z" opacity=".15"/><path d="M369.08 63.21c.13.25-.22.58-.76.45s-.77-.41-.77-.66a.34.34 0 01.34-.34c-.16.08-.21.27-.05.48a1.08 1.08 0 00.9.36c.26-.03.34-.15.34-.29z" opacity=".15"/><path d="M361.56 70.69c0 .59-.3 1.1-.75 1.12s-.85-.44-.88-1 .31-1.11.76-1.13.84.41.87 1.01z" fill="#ba68c8"/><path d="M361.56 70.69c0 .59-.3 1.1-.75 1.12s-.85-.44-.88-1 .31-1.11.76-1.13.84.41.87 1.01z" opacity=".15"/><path d="M360.43 70c.19-.21.62 0 .69.56s-.12.86-.36 1a.34.34 0 01-.44-.21c.13.13.33.12.46-.11a1 1 0 000-1c-.06-.19-.22-.24-.35-.24z" opacity=".15"/><path d="M368.71 69.86a.84.84 0 111.31-1 .85.85 0 11-1.31 1z" fill="#ba68c8"/><path d="M368.71 69.86a.84.84 0 111.31-1 .85.85 0 11-1.31 1z" opacity=".15"/><path d="M370 69.81c0 .28-.52.33-.87-.1a.93.93 0 01-.22-1 .35.35 0 01.48-.07c-.18 0-.33.09-.33.35a1.08 1.08 0 00.5.84c.2.11.37.09.44-.02z" opacity=".15"/><path d="M358.44 66.57a.85.85 0 11-1.32-1 .85.85 0 111.32 1z" fill="#ba68c8"/><path d="M358.44 66.57a.85.85 0 11-1.32-1 .85.85 0 111.32 1z" opacity=".15"/><path d="M358 65.34c.28 0 .47.4.18.87s-.64.59-.89.51a.34.34 0 01-.2-.44c0 .18.18.29.43.21a1.06 1.06 0 00.64-.74c.03-.21-.04-.37-.16-.41z" opacity=".15"/><path d="M366.56 73.12A1.66 1.66 0 11367 71a1.53 1.53 0 01-.44 2.12z" fill="#ba68c8"/><path d="M366.56 73.12A1.66 1.66 0 11367 71a1.53 1.53 0 01-.44 2.12z" opacity=".15"/><path d="M365.63 70.55c-.51 0-1 .53-.83 1.3s1.2 1.36 1.7.84a1.51 1.51 0 01-1.24-.85.94.94 0 01.37-1.29z" opacity=".15"/><circle cx="50.75" cy="168.22" r="8.01" fill="#ba68c8"/><path d="M56 162.3a3.85 3.85 0 01-1.5-1c.29.13.77-.13 1.39-.92s1-1.29 1.3-1.75l.14-.2.39.27c0 .06-.09.13-.14.2-.32.47-.76 1.13-1.2 1.82-.52.82-.59 1.36-.38 1.58z" fill="#ba68c8"/><path d="M57.56 158.91l-.21-.12a.93.93 0 01-.18-.16l.17-.24.39.27z" opacity=".2"/><path d="M58.35 158.77a.38.38 0 00.06-.13v-.12a1.17 1.17 0 00-.46-.54 1.14 1.14 0 00-.67-.24h-.14a.52.52 0 00-.11.1.61.61 0 00-.03.16c0 .19.14.48.47.71s.66.3.82.19z" fill="#ba68c8"/><path d="M58.16 158.49c-.08.1-.32.06-.54-.09s-.34-.37-.27-.47.16-.08.29 0c-.16 0-.21.12-.12.27a.9.9 0 00.45.3c.11 0 .19 0 .2-.07a.16.16 0 01-.01.06z" opacity=".3"/><path d="M53.16 160.64a4.14 4.14 0 01-1.79-.34c.31 0 .58 0 .8-.91.18-.71.21-.75.31-1.25v-.21l.52.07a1.12 1.12 0 000 .21 12.75 12.75 0 00-.19 1.27c-.17.91.06 1.05.35 1.16z" fill="#ba68c8"/><path d="M52.93 158.31a1 1 0 01-.24 0 .86.86 0 01-.23-.06l.06-.29.48.04z" opacity=".2"/><path d="M53.76 157.81a.33.33 0 000-.17v-.05a1.29 1.29 0 00-.75-.37 1.33 1.33 0 00-.84.06h-.05a.39.39 0 00-.06.15.43.43 0 000 .16c0 .22.39.45.84.54s.86 0 1-.19a.35.35 0 00-.14-.13z" fill="#ba68c8"/><path d="M53.42 157.6c0 .15-.31.22-.63.16s-.54-.23-.51-.38.13-.15.29-.17c-.17.06-.17.23 0 .34a1.14 1.14 0 00.63.11c.13 0 .21-.07.19-.18a.27.27 0 01.03.12z" opacity=".3"/><path d="M49.74 160.35a3.86 3.86 0 01-1.5.35c.25-.09.38-.47.27-1.15a5.72 5.72 0 00-.1-.62v-.16l.39-.09a1.24 1.24 0 000 .16 3.82 3.82 0 00.19.6c.21.66.49.94.75.91z" fill="#ba68c8"/><path d="M48.83 158.92a.66.66 0 01-.2.06.69.69 0 01-.2 0v-.24l.39-.09c-.03.1-.02.19.01.27z" opacity=".2"/><path d="M49.19 158.34a.31.31 0 000-.1.94.94 0 00-.59 0 1 1 0 00-.53.29.4.4 0 000 .11.37.37 0 000 .11.73.73 0 00.71.1c.32-.07.56-.24.58-.4a.24.24 0 00-.17-.11z" fill="#ba68c8"/><path d="M48.9 158.31c0 .11-.13.23-.36.29s-.42 0-.44-.1 0-.14.14-.2c-.09.09-.05.2.09.22a.77.77 0 00.45-.11c.08 0 .11-.11.07-.17a.12.12 0 01.05.07z" opacity=".3"/><path d="M46.74 161.36a3.77 3.77 0 01-1.45 1.1c.21-.23.12-.77-.44-1.59s-.91-1.3-1.24-1.75l-.15-.19.38-.29c0 .06.09.13.15.19.34.45.82 1.06 1.34 1.68s1.13.99 1.41.85z" fill="#ba68c8"/><path d="M44 158.88a.93.93 0 01-.18.16 1.37 1.37 0 01-.2.13l-.18-.24.38-.29z" opacity=".2"/><path d="M44.23 157.87a.45.45 0 00-.13-.11h-.14a1.4 1.4 0 00-.82.33 1.43 1.43 0 00-.54.7.13.13 0 000 .06v.05a.48.48 0 00.08.16.41.41 0 00.12.11c.2.13.63 0 1-.28s.61-.67.54-.9a.34.34 0 00-.11-.12z" fill="#ba68c8"/><path d="M43.82 158c.1.13 0 .4-.31.6s-.56.26-.66.14 0-.22.07-.35c-.07.17.06.29.27.23a1.13 1.13 0 00.53-.41c.07-.12.09-.22 0-.27a.17.17 0 01.1.06z" opacity=".3"/><path d="M44.27 163.62a6.63 6.63 0 01-.84 1.52c.11-.28 0-.6-.42-.9s-.7-.45-.95-.59l-.11-.06.22-.4.11.06c.26.14.62.32 1 .49s.82.12.99-.12z" fill="#ba68c8"/><path d="M42.34 163.29l-.1.2-.12.19-.17-.09.22-.4z" opacity=".2"/><path d="M42.16 162.59a.27.27 0 00-.12 0h-.14a1.11 1.11 0 00-.44.45 1.14 1.14 0 00-.15.62.2.2 0 00.09.09h.12c.16 0 .41-.17.58-.47s.2-.62.09-.75a.24.24 0 00-.03.06z" fill="#ba68c8"/><path d="M41.93 162.79c.1.06.09.27 0 .49s-.29.33-.39.28-.08-.13-.06-.25c0 .13.13.18.25.08a.91.91 0 00.23-.43c0-.1 0-.17-.09-.17z" opacity=".3"/><path d="M43 166.62a3.77 3.77 0 01-.15 1.82c0-.32-.49-.61-1.46-.74-.8-.11-1.57-.2-2.13-.25h-.23v-.47h.23c.56 0 1.33.09 2.14.12.98.03 1.48-.18 1.6-.48z" fill="#ba68c8"/><path d="M39.33 167a1.93 1.93 0 010 .24 2 2 0 010 .24h-.3v-.47z" opacity=".2"/><path d="M38.67 166.05a.58.58 0 00-.19 0h-.06a1.8 1.8 0 00-.16 1.86.48.48 0 00.18.06.52.52 0 00.18 0c.25-.06.47-.49.52-1s-.1-1-.34-1.1a.49.49 0 00-.13.18z" fill="#ba68c8"/><path d="M38.48 166.48c.17 0 .29.32.26.69s-.2.65-.38.64-.19-.13-.23-.31c.09.18.28.17.39-.05a1.28 1.28 0 000-.74c0-.14-.11-.23-.23-.19a.19.19 0 01.19-.04z" opacity=".3"/><path d="M43 169.89a5.9 5.9 0 01.63 1.8c-.15-.29-.55-.43-1.22-.25s-1.07.3-1.44.43h-.16l-.16-.47.15-.06c.37-.13.88-.32 1.4-.55s.86-.58.8-.9z" fill="#ba68c8"/><path d="M40.85 171.37a1.6 1.6 0 01.1.23c0 .09 0 .17.07.25l-.22.07-.16-.47z" opacity=".2"/><path d="M40.11 171a.36.36 0 00-.12.08 1.09 1.09 0 00.05.7 1 1 0 00.4.59h.05a.33.33 0 00.14 0 .41.41 0 00.11-.07.86.86 0 000-.85c-.13-.37-.36-.63-.55-.63a.29.29 0 00-.08.18z" fill="#ba68c8"/><path d="M40.11 171.36c.12 0 .29.13.38.39s.06.5-.06.54-.17 0-.25-.14c.12.09.24 0 .24-.14a.9.9 0 00-.18-.52c-.07-.08-.15-.12-.21-.06a.14.14 0 01.08-.07z" opacity=".3"/><path d="M44.49 173.12a11.25 11.25 0 011 1c-.14-.13-.38-.26-.55-.17a2.69 2.69 0 00-.36.25l-.2-.21a1.58 1.58 0 00.26-.35.48.48 0 00-.15-.52z" fill="#ba68c8"/><path d="M44.38 174l.11.11.1.11-.08.07-.2-.21z" opacity=".2"/><path d="M43.74 173.91a.24.24 0 00-.06.09v.09a.82.82 0 00.26.48.86.86 0 00.46.29h.22a.41.41 0 000-.09c.07-.13 0-.38-.23-.6s-.46-.34-.59-.28z" fill="#ba68c8"/><path d="M43.85 174.15c.07-.06.24 0 .39.16s.19.33.12.4-.13 0-.22 0c.12 0 .18-.06.13-.18a.73.73 0 00-.29-.31h-.16a.11.11 0 01.03-.07z" opacity=".3"/><path d="M47 175.22a4.33 4.33 0 011.7.68c-.31-.07-.58-.07-.95.72-.3.64-.34.68-.53 1.14 0 .06 0 .13-.08.19l-.44-.18c0-.06.05-.12.08-.19.18-.46.19-.51.41-1.18.24-.83.04-1.01-.19-1.18z" fill="#ba68c8"/><path d="M46.77 177.49l.23.08.22.1c0 .1-.08.19-.12.28l-.44-.18c.04-.08.07-.18.11-.28z" opacity=".2"/><path d="M45.86 177.83a.51.51 0 000 .17v.05a1.41 1.41 0 00.68.51 1.27 1.27 0 00.83.09h.07a.3.3 0 00.09-.13.45.45 0 000-.16c0-.22-.29-.51-.72-.69a1 1 0 00-1 0 .38.38 0 00.05.16z" fill="#ba68c8"/><path d="M46.16 178.1c.06-.14.35-.16.64 0s.5.33.44.47-.16.13-.32.12c.18 0 .21-.2.06-.34a1.19 1.19 0 00-.6-.23c-.13 0-.22 0-.21.14a.17.17 0 01-.01-.16z" opacity=".3"/><path d="M50.29 176.12a4 4 0 011.54-.06c-.26.05-.46.39-.48 1.07a5.3 5.3 0 000 .62.86.86 0 010 .16h-.4a.92.92 0 000-.16 3.34 3.34 0 00-.07-.61c-.1-.67-.33-.99-.59-1.02z" fill="#ba68c8"/><path d="M50.92 177.67h.4v.25h-.4c.01-.08 0-.16 0-.25z" opacity=".2"/><path d="M50.45 178.17v.12a1 1 0 00.58.14.94.94 0 00.57-.18.25.25 0 000-.12.2.2 0 000-.11c-.06-.15-.34-.25-.67-.24s-.6.14-.65.29a.36.36 0 00.17.1z" fill="#ba68c8"/><path d="M50.73 178.26c0-.11.18-.21.4-.21s.42.07.42.18-.06.13-.17.16c.11-.07.08-.18-.05-.23a.78.78 0 00-.46 0c-.09 0-.14.09-.1.16a.1.1 0 01-.04-.06z" opacity=".3"/><path d="M53.44 175.7a3.87 3.87 0 011.64-.8c-.26.18-.27.72.12 1.63.31.73.64 1.44.88 1.94a2 2 0 01.1.21l-.42.21a2.12 2.12 0 00-.11-.21c-.24-.5-.6-1.19-1-1.89-.47-.86-.91-1.18-1.21-1.09z" fill="#ba68c8"/><path d="M55.63 178.62l.2-.12.22-.09.13.27-.42.21c-.04-.09-.09-.17-.13-.27z" opacity=".2"/><path d="M55.23 179.57a.53.53 0 00.11.14h.08a1.4 1.4 0 00.86-.17 1.46 1.46 0 00.67-.58v-.06a.35.35 0 000-.17.45.45 0 00-.11-.13c-.17-.16-.61-.13-1 .08s-.73.55-.71.78a.42.42 0 00.1.11z" fill="#ba68c8"/><path d="M55.65 179.52c-.07-.14.12-.38.43-.53s.6-.15.67 0 0 .21-.13.33c.1-.17 0-.31-.22-.29a1.18 1.18 0 00-.61.31c-.09.1-.12.2 0 .27a.22.22 0 01-.14-.09z" opacity=".3"/><path d="M56.58 173.67a7 7 0 011-1.4c-.15.26-.09.6.29.94s.63.53.86.7l.1.07-.27.37-.1-.07a10.82 10.82 0 00-.93-.61c-.41-.26-.75-.22-.95 0z" fill="#ba68c8"/><path d="M58.43 174.23l.13-.19c0-.06.09-.12.14-.17l.16.11-.27.37z" opacity=".2"/><path d="M58.52 175l.12.05h.14a1 1 0 00.49-.39 1.11 1.11 0 00.23-.59v-.1a.25.25 0 00-.08-.1l-.11-.05c-.16 0-.43.12-.64.4s-.28.59-.19.73z" fill="#ba68c8"/><path d="M58.78 174.78c-.1-.07-.06-.28.09-.48s.33-.29.42-.23.07.14 0 .26c0-.14-.1-.19-.23-.11a.85.85 0 00-.29.39c0 .1 0 .17.07.19z" opacity=".3"/><path d="M58.13 171.18a3.12 3.12 0 01.5-1.76c0 .32.5.73 1.69 1.12.28.09.9.36 1.58.56l.29.08-.13.45-.29-.08c-.68-.19-1.41-.39-1.61-.43-1.22-.3-1.87-.22-2.03.06z" fill="#ba68c8"/><path d="M61.77 171.55v-.23a1.43 1.43 0 01.08-.22l.29.08-.13.45z" opacity=".2"/><path d="M62.24 172.59a.41.41 0 00.19 0h.12a1.57 1.57 0 00.5-.83 1.52 1.52 0 000-1v-.11a.46.46 0 00-.17-.09.37.37 0 00-.18 0c-.26 0-.55.4-.7.91s-.09 1 .12 1.14a.42.42 0 00.12-.02z" fill="#ba68c8"/><path d="M62.51 172.21c-.17-.05-.22-.37-.12-.73s.31-.6.48-.55.17.16.18.35c-.06-.2-.25-.22-.4 0a1.37 1.37 0 00-.19.72c0 .15.07.25.19.23a.18.18 0 01-.14-.02z" opacity=".3"/><path d="M58.69 168.05a4.71 4.71 0 01-.28-1.9c.1.32.57.51 1.47.44.73-.06.66-.06 1.16-.13h.22l.07.49h-.21c-.51.08-.43.12-1.15.27-.88.18-1.28.5-1.28.83z" fill="#ba68c8"/><path d="M61.1 167c0-.07 0-.15-.05-.24a2.29 2.29 0 010-.25h.23l.07.49z" opacity=".2"/><path d="M61.77 167.44l.13-.05a1.19 1.19 0 00.09-.71 1.12 1.12 0 00-.28-.65h-.31c-.17.09-.25.43-.2.82s.24.69.42.73a.33.33 0 00.15-.14z" fill="#ba68c8"/><path d="M61.83 167.1c-.12 0-.26-.18-.3-.45s0-.5.16-.51.17.06.22.18c-.1-.12-.23-.07-.27.09a.92.92 0 00.09.54c.05.1.12.15.19.1a.11.11 0 01-.09.05z" opacity=".3"/><path d="M57.86 164.55a12.22 12.22 0 01-.75-1.18c.11.16.32.33.51.26a1.54 1.54 0 00.4-.17l.16.25a1.35 1.35 0 00-.32.29.47.47 0 000 .55z" fill="#ba68c8"/><path d="M58.12 163.74l-.08-.12a.83.83 0 01-.07-.13l.09-.06.16.25z" opacity=".2"/><path d="M58.75 163.91l.07-.07v-.05a.87.87 0 00-.16-.53.91.91 0 00-.4-.37h-.12a.19.19 0 00-.1 0 .27.27 0 00-.07.08c-.09.11 0 .38.11.64s.39.41.53.38a.21.21 0 00.14-.08z" fill="#ba68c8"/><path d="M58.69 163.66c-.08.05-.24 0-.35-.23s-.14-.36-.05-.41.13 0 .21.06c-.11-.05-.19 0-.16.15a.66.66 0 00.23.36c.07 0 .13.06.16 0a.1.1 0 01-.04.07z" opacity=".3"/><path d="M55.39 174.75c-2 1.32-8 1.76-10.9-3.3s1.38-9.68 3.19-10.62a7.92 7.92 0 00-3.5 2.81 8 8 0 0011.21 11.11z" opacity=".1"/><path d="M46 168.22a1 1 0 01-.63 1.22c-.45.07-.89-.35-1-.94a1 1 0 01.63-1.22c.41-.07.85.35 1 .94z" fill="#ba68c8"/><path d="M46 168.22a1 1 0 01-.63 1.22c-.45.07-.89-.35-1-.94a1 1 0 01.63-1.22c.41-.07.85.35 1 .94z" opacity=".15"/><path d="M44.75 167.68c.16-.23.62-.06.74.48a.93.93 0 01-.25 1 .34.34 0 01-.46-.16c.15.12.34.08.45-.17a1.05 1.05 0 00-.07-1c-.16-.15-.29-.21-.41-.15z" opacity=".15"/><path d="M55.46 169.83c.07-.6.49-1 .94-1a1 1 0 01.69 1.18c-.07.6-.49 1-.94 1a1 1 0 01-.69-1.18z" fill="#ba68c8"/><path d="M55.46 169.83c.07-.6.49-1 .94-1a1 1 0 01.69 1.18c-.07.6-.49 1-.94 1a1 1 0 01-.69-1.18z" opacity=".15"/><path d="M56.46 170.68c-.22.18-.61-.11-.58-.67s.27-.83.52-.88a.33.33 0 01.4.28c-.11-.15-.3-.17-.48 0a1.07 1.07 0 00-.2 1c.07.2.21.3.34.27z" opacity=".15"/><path d="M50.4 165.72a.82.82 0 01-1.08-.4c-.11-.36.2-.78.68-.92a.82.82 0 011.08.4c.11.36-.2.78-.68.92z" fill="#ba68c8"/><path d="M50.4 165.72a.82.82 0 01-1.08-.4c-.11-.36.2-.78.68-.92a.82.82 0 011.08.4c.11.36-.2.78-.68.92z" opacity=".15"/><path d="M50.73 164.66c.21.12.11.51-.33.68a.84.84 0 01-.86-.11.28.28 0 01.09-.4c-.08.13 0 .29.19.36a.88.88 0 00.8-.17c.14-.12.17-.26.11-.36z" opacity=".15"/><path d="M49.68 170.21a.86.86 0 11-.74 1.47.86.86 0 11.74-1.47z" fill="#ba68c8"/><path d="M49.68 170.21a.86.86 0 11-.74 1.47.86.86 0 11.74-1.47z" opacity=".15"/><path d="M48.53 170.86c-.09-.27.32-.54.83-.32s.69.54.65.8a.33.33 0 01-.4.27c.18-.05.26-.23.13-.46a1 1 0 00-.83-.52c-.21-.01-.36.09-.38.23z" opacity=".15"/><path d="M49.16 163.39a1 1 0 01-1.25-.55c-.11-.44.28-.91.87-1.05a1 1 0 011.26.55c.1.44-.29.91-.88 1.05z" fill="#ba68c8"/><path d="M49.16 163.39a1 1 0 01-1.25-.55c-.11-.44.28-.91.87-1.05a1 1 0 011.26.55c.1.44-.29.91-.88 1.05z" opacity=".15"/><path d="M49.62 162.15c.25.15.11.62-.43.78a.93.93 0 01-1-.19.35.35 0 01.13-.47c-.11.16-.05.35.2.44a1 1 0 001-.14c.13-.13.18-.3.1-.42z" opacity=".15"/><path d="M52.8 169.69a.76.76 0 11.81 1.21.76.76 0 11-.81-1.21z" fill="#ba68c8"/><path d="M52.8 169.69a.76.76 0 11.81 1.21.76.76 0 11-.81-1.21z" opacity=".15"/><path d="M52.8 170.86c-.25-.05-.28-.47.11-.78a.86.86 0 01.9-.16.29.29 0 010 .43c0-.16-.06-.3-.3-.3a1 1 0 00-.76.42c-.06.16-.05.32.05.39z" opacity=".15"/><path d="M54.89 166.37a1.19 1.19 0 111.78.63 1.37 1.37 0 01-1.78-.63z" fill="#ba68c8"/><path d="M54.89 166.37a1.19 1.19 0 111.78.63 1.37 1.37 0 01-1.78-.63z" opacity=".15"/><path d="M56.72 166.38c-.08.39-.75.42-1.22-.19a1.32 1.32 0 01-.24-1.41.46.46 0 01.67-.05c-.25-.07-.47.09-.48.46a1.48 1.48 0 00.65 1.2.46.46 0 00.62-.01z" opacity=".15"/><path d="M46.81 171.77a.64.64 0 11-1-.14.73.73 0 011 .14z" fill="#ba68c8"/><path d="M46.81 171.77a.64.64 0 11-1-.14.73.73 0 011 .14z" opacity=".15"/><path d="M45.84 172c0-.22.35-.31.67 0s.37.54.28.71a.26.26 0 01-.35.11c.14 0 .24-.1.2-.3a.78.78 0 00-.47-.56c-.17-.12-.28-.09-.33.04z" opacity=".15"/><path d="M50.46 173.09c.61.06 1.07.48 1 .94s-.57.78-1.18.73-1.08-.47-1-.93a1 1 0 011.18-.74z" fill="#ba68c8"/><path d="M50.46 173.09c.61.06 1.07.48 1 .94s-.57.78-1.18.73-1.08-.47-1-.93a1 1 0 011.18-.74z" opacity=".15"/><path d="M49.61 174.14c-.18-.22.1-.63.67-.61s.86.25.92.5a.36.36 0 01-.28.42c.15-.12.16-.32-.05-.49a1.07 1.07 0 00-1-.18c-.19.07-.29.22-.26.36z" opacity=".15"/><path d="M53.87 172.74a.65.65 0 01.89-.05.65.65 0 01-.2.87.65.65 0 01-.89.05.65.65 0 01.2-.87z" fill="#ba68c8"/><path d="M53.87 172.74a.65.65 0 01.89-.05.65.65 0 01-.2.87.65.65 0 01-.89.05.65.65 0 01.2-.87z" opacity=".15"/><path d="M54 173.59c-.18 0-.23-.32 0-.57s.5-.28.64-.19a.22.22 0 01.07.31c0-.12-.07-.21-.25-.2a.69.69 0 00-.52.37c-.07.12-.05.24.06.28z" opacity=".15"/><path d="M52.59 163c-.38-.12-.61-.44-.53-.72a.65.65 0 01.84-.31c.38.12.61.44.53.72a.66.66 0 01-.84.31z" fill="#ba68c8"/><path d="M52.59 163c-.38-.12-.61-.44-.53-.72a.65.65 0 01.84-.31c.38.12.61.44.53.72a.66.66 0 01-.84.31z" opacity=".15"/><path d="M53.26 162.43c.08.17-.15.38-.5.3s-.51-.27-.51-.44a.22.22 0 01.23-.22c-.11.05-.15.17 0 .31a.7.7 0 00.6.24c.1-.02.18-.1.18-.19z" opacity=".15"/><path d="M48.32 167.34c0 .39-.2.73-.5.74s-.55-.29-.57-.68a.64.64 0 01.49-.74c.26-.02.55.34.58.68z" fill="#ba68c8"/><path d="M48.32 167.34c0 .39-.2.73-.5.74s-.55-.29-.57-.68a.64.64 0 01.49-.74c.26-.02.55.34.58.68z" opacity=".15"/><path d="M47.58 166.9c.12-.14.4 0 .44.37a.62.62 0 01-.23.63.23.23 0 01-.29-.14c.09.09.22.07.31-.08a.69.69 0 000-.63c-.05-.13-.15-.18-.23-.15z" opacity=".15"/><path d="M53 166.8a.65.65 0 010-.89.74.74 0 01.84 1.15.63.63 0 01-.84-.26z" fill="#ba68c8"/><path d="M53 166.8a.65.65 0 010-.89.74.74 0 01.84 1.15.63.63 0 01-.84-.26z" opacity=".15"/><path d="M53.87 166.77c0 .18-.34.21-.58-.07s-.24-.52-.14-.65a.22.22 0 01.32 0c-.12 0-.22.05-.22.23a.7.7 0 00.33.54c.12.03.24.02.29-.05z" opacity=".15"/><path d="M46.27 164.64a.66.66 0 01-.86.26.64.64 0 010-.89.63.63 0 01.85-.26.64.64 0 01.01.89z" fill="#ba68c8"/><path d="M46.27 164.64a.66.66 0 01-.86.26.64.64 0 010-.89.63.63 0 01.85-.26.64.64 0 01.01.89z" opacity=".15"/><path d="M46 163.83c.18 0 .31.26.12.57s-.42.39-.58.33a.21.21 0 01-.14-.28c0 .12.12.19.28.13a.68.68 0 00.43-.48c-.01-.1-.05-.24-.11-.27z" opacity=".15"/><path d="M51.6 168.94a1 1 0 01-1.34-.48.95.95 0 111.34.48z" fill="#ba68c8"/><path d="M51.6 168.94a1 1 0 01-1.34-.48.95.95 0 111.34.48z" opacity=".15"/><path d="M51 167.25c-.34 0-.64.35-.55.85s.79.9 1.12.56a1 1 0 01-.81-.56.62.62 0 01.24-.85z" opacity=".15"/><g fill="#455a64"><path d="M105.49 114.43a40.42 40.42 0 01-5.69-.4 39.53 39.53 0 115.69.4zm-.13-75.92a36.38 36.38 0 1029.17 14.56 36.2 36.2 0 00-29.17-14.56z"/><path d="M77.421 49.463l2.3-2.151 51.65 55.233-2.3 2.151z"/></g></svg>