<svg xmlns="http://www.w3.org/2000/svg" viewBox="0 0 300 300"><defs><style>.a{fill:#fff}.b{fill:#ffc5ff}.c{fill:#ff553e}.d{fill:#ffdb43}</style></defs><path class="a" d="M194.769 93.443a15 15 0 01-10.822 9.834v6.613h-6.785v-6.613a15.046 15.046 0 01-11.552-13.313l.09-3.264a15.013 15.013 0 0111.981-12.755zm29.502-10.35h70.084v70.084h-70.084z"/><path class="b" d="M151.1 83.051l20.055 4.938a.33.33 0 010 .644l-68.2 16.662V71.241l17.435 4.38 17.264 3.35 5.668 9.447v-7.729zm-85.463-11.81l16.233 3.994v26.024l-16.233 4.036V71.241z"/><path d="M21.405 134.197h77.041v15.76H21.405z"/><path class="c" d="M5.644 134.197h15.76v15.76H5.644z"/><path class="a" d="M5.644 149.656h82.452V199.9H5.644z"/><circle class="a" cx="95.225" cy="88.29" r="18.423"/><path class="a" d="M95.225 81.934a13.682 13.682 0 00-10.994 5.54 13.68 13.68 0 0021.988 0 13.682 13.682 0 00-10.994-5.54z"/><circle class="a" cx="57.821" cy="88.29" r="18.423"/><path class="a" d="M68.858 87.474a13.684 13.684 0 01-10.994 5.539 14.543 14.543 0 01-3.908-.558v-9.92a13.047 13.047 0 013.908-.558 13.526 13.526 0 0110.994 5.497z"/><path class="b" d="M88.096 149.957h10.349v29.459H88.096z"/><path class="d" d="M88.096 179.417h10.349v20.484H88.096z"/><path d="M53.913 82.492v9.92a13.544 13.544 0 01-7.086-4.981 14.069 14.069 0 017.086-4.939zm37.404 0v9.92a13.544 13.544 0 01-7.086-4.981 13.714 13.714 0 017.086-4.939z"/><path class="c" d="M212.2 178.772l-53.937-20.527.687-13.828-8.031 8.246a14.152 14.152 0 01-19.11.987l-.172-.129a14.059 14.059 0 01-5.067-10.821v-27.742h24.53v12.5l19.2-17.521h23.147s18.208 63.3 18.552 64.932a21.66 21.66 0 01.201 3.903z"/><path class="d" d="M212.247 178.772L159 158.5a24.381 24.381 0 00-8.761-1.632h-.257a24.549 24.549 0 00-24.307 21.043l-5.539 38.735 37.447 13.27-5.068-44.576 31.693 12.067a20.614 20.614 0 0020.7-3.607l.214-.172a19.459 19.459 0 007.125-14.856z"/><path class="d" d="M174.542 193.76l9.577 3.65a20.477 20.477 0 0016.662-.9l-6.871 27.785 18.294-6.785 14.429 35.257H183.26a19.4 19.4 0 01-18.638-24.779z"/><path class="b" d="M226.676 252.765h29.589l-26.754-34.141-14.043 6.828 11.208 27.313z"/><path d="M194.6 76.265l-18.337-5.2 10.35-20.828a5.308 5.308 0 016.184-2.748l.085.043a5.272 5.272 0 013.822 5.583z"/><path class="b" d="M126.617 114.915h24.521v6.957h-24.521z"/><path class="a" d="M151.1 70.683v44.275h-24.526v-12.282l-11.852-19.8a3.534 3.534 0 011.245-4.9l.043-.043a3.535 3.535 0 014.9 1.246 3.524 3.524 0 011.245-4.9l.043-.043a3.558 3.558 0 014.895 1.2 3.543 3.543 0 011.246-4.895l.043-.043a3.533 3.533 0 014.9 1.245l10.049 16.791V70.683a3.83 3.83 0 013.822-3.822h.086a3.786 3.786 0 013.861 3.822z"/><path class="b" d="M160.113 252.765l-2.576-22.846-24.951-8.847-26.84 31.693h54.367z"/><path class="d" d="M195.542 88.676a14.6 14.6 0 01-.773 4.767l-17.092-19.454a16.023 16.023 0 012.878-.3 14.973 14.973 0 0114.987 14.987z"/><path d="M215.811 224.551l-3.22-7.9-17.736 6.613 6.484-26.324a19.6 19.6 0 003.908-2.663l.215-.172a21.365 21.365 0 007.386-15.545l.086-.215-.086-.043a21.827 21.827 0 00-.73-5.969L193.91 109.16h-9.319v-5.453a15.635 15.635 0 003.779-28.644l19.325 5.5.344-1.246-12.755-3.521 2.062-22.631a5.965 5.965 0 00-4.3-6.27l-.086-.043a5.157 5.157 0 00-1.632-.215 5.889 5.889 0 00-5.325 3.307L175.96 70.3l-12.755-3.607-.343 1.245 12.5 3.565 5.669 1.589h-.431a17.464 17.464 0 00-2.62.214 15.674 15.674 0 00-12.711 12.583l-13.442-3.307V70.683a4.462 4.462 0 00-4.466-4.466h-.172a4.462 4.462 0 00-4.466 4.466v15.459l-8.846-14.815a4.246 4.246 0 00-5.8-1.46l-.043.043a4.3 4.3 0 00-2.061 3.564 7.738 7.738 0 00-.9-.344 4.325 4.325 0 00-3.178.473l-.043.043a3.583 3.583 0 00-1.288 1.245l-20.141-4.938a18.324 18.324 0 00-5.11-.687 19 19 0 00-13.227 5.368L63.1 69.953a18.428 18.428 0 00-5.153-.73 19.067 19.067 0 000 38.134 19.528 19.528 0 005.969-.945l18.165-4.423a18.919 18.919 0 0013.27 5.368 19.734 19.734 0 005.969-.945l23.49-5.755 1.289 2.148v39.852a14.727 14.727 0 005.325 11.337l.172.129a14.757 14.757 0 009.447 3.392c.473 0 .988-.043 1.46-.086a25.341 25.341 0 00-8.846 4.939 25.071 25.071 0 00-8.46 15.417l-5.626 39.25 12.11 4.3-27.1 32.036h56.471l-7.852-67.083 20.527 7.815-9.748 33.668a20.013 20.013 0 0019.239 25.6h74.336l-27.871-35.6zM187.211 50.5a4.625 4.625 0 014.165-2.577 4.432 4.432 0 011.289.172l.086.043a4.624 4.624 0 013.349 4.9l-2.061 22.373-16.834-4.771zm-6.656 23.834A14.369 14.369 0 01194.9 88.676a13.3 13.3 0 01-.43 3.479l-15.547-17.736c.558-.043 1.077-.086 1.632-.086zm-3.092.343l16.619 18.939a14.351 14.351 0 01-10.221 9.061l-.515.129v6.484h-5.5v-6.484l-.515-.129a14.089 14.089 0 01-6.785-3.736 6.323 6.323 0 00.9.043 10.157 10.157 0 007.773-3.565l-.987-.859a9.072 9.072 0 01-6.828 3.135 8.107 8.107 0 01-2.276-.3 14.55 14.55 0 01-2.828-6.915l4.982-1.2a.15.15 0 00.086-.043l6.226 2.448.473-1.2-5.667-2.238 5.755-3.693-.687-1.074-6.141 3.908c-.043 0-.043 0-.086-.043l-4.9-1.2a14.655 14.655 0 0111.122-11.469zm-50.2 40.883h23.233v5.669h-23.235zm24.478-21.515L165.1 90.78a15.533 15.533 0 0011.423 13.012v5.454h-6.485l-18.294 16.7zm18.037-5.754l-18.037 4.423v-8.848zm-88.81-12.627a19.144 19.144 0 00-4.424 8.89A19 19 0 0068.772 72.7zM40.085 88.29a17.779 17.779 0 1117.779 17.778A17.814 17.814 0 0140.085 88.29zm36.459 3.779a19.342 19.342 0 004.381 8.846l-12.11 2.963a19.377 19.377 0 007.729-11.809zm.9-3.779a17.779 17.779 0 1117.779 17.778A17.814 17.814 0 0177.446 88.29zm28.773 15.545a19.029 19.029 0 00-.086-31.177l13.828 3.393c0 .043-.043.128-.043.171a3.58 3.58 0 00-.129.945 4.19 4.19 0 00-4.08.129l-.043.043a4.247 4.247 0 00-1.46 5.8L124 99.5zm9.061-21.343a3.12 3.12 0 01-.344-2.233 2.718 2.718 0 011.332-1.8l.043-.043a2.98 2.98 0 014.036.987l9.061 15.117 1.117-.645-9.061-15.116a3.115 3.115 0 01-.344-2.233 2.722 2.722 0 011.332-1.8l.042-.043a2.982 2.982 0 014.037.988l9.061 15.116 1.117-.644-9.061-15.073a2.981 2.981 0 01.987-4.037l.043-.043a2.981 2.981 0 014.037.988l11.9 19.84 1.116-.644-1.718-2.877V70.683a3.171 3.171 0 013.178-3.178h.086a3.171 3.171 0 013.178 3.178v43.631h-23.235V102.5zm16.963 70.643l-.172-.129a13.444 13.444 0 01-4.853-10.349v-20.141h23.233v7.3h1.288v-2.147l18.767-17.177h22.416l17.908 62.225a18.81 18.81 0 01.687 5.111L159.211 157.9c-.085-.043-.171-.043-.257-.086l.687-13.1 12.11-12.411-.9-.9-20.357 20.787a13.543 13.543 0 01-18.251.945zm19.153-.043l6.871-7-.6 11.294a25.519 25.519 0 00-7.429-1.116h-.257a23.51 23.51 0 00-3.865.3 14.7 14.7 0 005.286-3.478zm-44.233 99.029l25.639-30.276 24.134 8.546 2.448 21.73zm49.6-23.147l-35.987-12.755 5.5-38.22a24.091 24.091 0 0123.706-20.484h.257a23.367 23.367 0 018.546 1.589l52.778 20.141a20.09 20.09 0 01-6.914 13.914l-.215.171a19.823 19.823 0 01-20.054 3.479L151.7 184.355zm11.509 15.674a18.587 18.587 0 01-3.006-16.49l9.705-33.582 8.932 3.392a21.281 21.281 0 0015.932-.343l-6.828 27.656 18.853-7 13.828 33.8H183.26a18.352 18.352 0 01-14.987-7.433zm58.833 7.473l-10.779-26.368 13.012-6.313 25.594 32.681z"/><path d="M57.821 81.29a14.121 14.121 0 00-11.509 5.8l-.3.387.3.386a14.322 14.322 0 0023.018 0l.3-.386-.3-.387a14.122 14.122 0 00-11.509-5.8zm-10.178 6.184a12.887 12.887 0 015.626-4.08v8.159a13.143 13.143 0 01-5.626-4.079zm10.178 4.895a11.761 11.761 0 01-3.264-.429v-8.975a13.578 13.578 0 013.264-.43A12.882 12.882 0 0168 87.431a12.8 12.8 0 01-10.179 4.938zM95.225 81.29a14.122 14.122 0 00-11.509 5.8l-.3.387.3.386a14.322 14.322 0 0023.018 0l.3-.386-.3-.387a14.18 14.18 0 00-11.509-5.8zM85 87.474a12.887 12.887 0 015.626-4.08v8.159A13.4 13.4 0 0185 87.474zm10.221 4.895a11.766 11.766 0 01-3.264-.429v-8.975a13.585 13.585 0 013.264-.43 12.882 12.882 0 0110.178 4.9 12.922 12.922 0 01-10.174 4.934zM20.76 133.552H5v66.993h94.09v-66.993H20.76zm-6.312 8.5l6.312-6.312v12.625zm-.945-.9l-6.313-6.311h12.626zm-.9.9l-6.313 6.313v-12.622zm.9.9l6.313 6.313H7.19zm-7.215 56.3V150.6H87.5v48.656zm91.514 0h-9.061v-19.2H97.8zm0-20.485h-9.061V150.6H97.8zm0-43.931v14.472H22.049v-14.467zm173.836-52.387h-48.011v71.373H295V82.449zm-23.361 1.289h22.073v22.073h-22.073zm22.073 45.434h-22.073V107.1h22.073zm-45.434-45.434h22.073v22.073h-22.073zm0 23.361h22.073v22.073h-22.073zm22.073 45.478h-22.073v-22.116h22.073zm23.361 0h-22.073v-22.116h22.073zm23.362 0h-22.074v-22.116h22.074zm0-23.4h-22.074V107.1h22.074zm-22.074-23.361V83.738h22.074v22.073z"/><path d="M56.232 162.454a14.967 14.967 0 00-10.693-4.423 15.146 15.146 0 00-10.693 4.423 14.971 14.971 0 00-4.423 10.693 15.152 15.152 0 004.423 10.693 15.107 15.107 0 0020.914.429l7.386 7.387.9-.9-7.387-7.387a15.07 15.07 0 00-.427-20.915zM35.791 182.9a13.736 13.736 0 01-4.037-9.791 13.915 13.915 0 014.037-9.791 13.735 13.735 0 019.791-4.037 13.828 13.828 0 019.791 23.619 13.892 13.892 0 01-19.582 0z"/></svg>